<?xml version="1.0" standalone="no"?>
<!DOCTYPE svg PUBLIC "-//W3C//DTD SVG 1.1//EN" "http://www.w3.org/Graphics/SVG/1.1/DTD/svg11.dtd" >
<svg xmlns="http://www.w3.org/2000/svg" xmlns:xlink="http://www.w3.org/1999/xlink" version="1.1">
<metadata>
Created by FontForge 20190801 at Wed Dec  7 16:57:01 2016
 By Unknown
Copyright (c) 2016, Madrid, Spain. Alfonso Armenteros Parras (alfonsoarmenterosparras@gmail.com)
</metadata>
<defs>
<font id="Stijla" horiz-adv-x="833" >
  <font-face 
    font-family="Stijla"
    font-weight="400"
    font-stretch="normal"
    units-per-em="1000"
    panose-1="2 0 5 3 0 0 0 0 0 0"
    ascent="800"
    descent="-200"
    x-height="653"
    cap-height="653"
    bbox="-1 -288 838 841"
    underline-thickness="50"
    underline-position="-200"
    unicode-range="U+0020-00FF"
  />
<missing-glyph horiz-adv-x="364" 
d="M33 0v666h265v-666h-265zM66 33h199v600h-199v-600z" />
    <glyph glyph-name=".notdef" horiz-adv-x="364" 
d="M33 0v666h265v-666h-265zM66 33h199v600h-199v-600z" />
    <glyph glyph-name="uni0000" horiz-adv-x="1000" 
 />
    <glyph glyph-name="uni0000" horiz-adv-x="1000" 
 />
    <glyph glyph-name="nonmarkingreturn" horiz-adv-x="333" 
 />
    <glyph glyph-name="space" unicode=" " horiz-adv-x="1000" 
d="M-1 800l10 -4z" />
    <glyph glyph-name="exclam" unicode="!" horiz-adv-x="457" 
d="M40 103v550h377v-550h-377zM40 77v7h377v-7v-7h-377v7zM40 43v6h377v-6v-7h-377v7zM40 9v7h377v-7v-8h-377v8zM40 -26v7h377v-7v-6h-377v6zM40 -60v7h377v-7v-7h-377v7zM40 -95v7h377v-7v-6h-377v6z" />
    <glyph glyph-name="quotedbl" unicode="&#x22;" horiz-adv-x="457" 
d="M40 647v6h188v-6v-6h-188v6zM40 614v6h188v-6v-8h-188v8zM40 579v7h188v-7v-7h-188v7zM40 545v6h188v-6v-7h-188v7zM40 510v7h188v-7v-7h-188v7zM40 476v7h188v-7v-7h-188v7zM40 442v7h172l-8 -7l-7 -7h-157v7zM40 407v7h137l-7 -7l-6 -6h-124v6zM40 373v7h103l-7 -7
l-7 -7h-89v7zM40 339v7h68l-7 -7l-6 -7h-55v7zM40 305v6h34l-7 -6l-7 -8h-20v8zM228 653h189v-6v-6h-189v6v6zM228 614v6h189v-6v-8h-189v8zM228 579v7h189v-7v-7h-189v7zM228 545v6h189v-6v-7h-189v7zM228 510v7h189v-7v-7h-189v7zM228 476v7h189v-7v-7h-189v7zM228 442v7
h171l-6 -7l-7 -7h-158v7zM228 407v7h138l-8 -7l-7 -6h-123v6zM228 373v7h103l-7 -7l-7 -7h-89v7zM228 339v7h69l-7 -7l-7 -7h-55v7zM228 305v6h34l-6 -6l-7 -8h-21v8z" />
    <glyph glyph-name="numbersign" unicode="#" horiz-adv-x="648" 
d="M420 392v-15h188v-7v-7h-188v-20h188v-7v-7h-188v-21h188v-7v-6h-188v-21h188v-7v-7h-188v-20h188v-8v-6h-188v-7v-7v-7h-188v7v7v7h-189v6v7h189v20h-189v7v8h189v20h-189v7v6h189v21h-189v7v7h189v21h-189v7v6h189v16v1v1h188v-1v-1zM420 582h188v-187h-188v4v2v7v12
h-188v-12v-7v-2v-4h-189v187h189v-3v-7v-2h188v2v7v3zM420 442v11h-188v-11v-7v-2h188v2v7zM420 476v12h-188v-12v-6v-2h188v2v6zM420 511v11h-188v-11v-7v-2h188v2v7zM420 545v12h-188v-12v-7v-2h188v2v7zM417 199v6h189v-189h-189v4v6v7h-188v-7v-6v-4h-189v189h189v-6v-7
v-7h188v7v7zM417 68h-188v-7v-6v-7h188v7v6v7zM417 103h-188v-7v-7v-7h188v7v7v7zM417 136h-188v-6v-7v-7h188v7v7v6zM417 171h-188v-7v-7v-6h188v6v7v7z" />
    <glyph glyph-name="dollar" unicode="$" horiz-adv-x="834" 
d="M512 636v-7h-190v7v7h190v-7zM512 601v-6h-190v6v7h190v-7zM512 568v-8h-190v8v6h190v-6zM322 18v7h190v-7v-7h-190v7zM322 -16v7h190v-7v-7h-190v7zM322 -50v7h190v-7v-7h-190v7zM322 -84v6h190v-6v-7h-190v7zM40 286h377q0 -14 -1 -20h96v-7v-7h-96q-1 -3 -2 -10.5
t-1 -10.5h99v-7v-6h-101q-1 -4 -2.5 -11t-2.5 -10h106v-7v-7h-110q-1 -3 -6 -20h116v-8v-6h-121q-5 -14 -8 -21h129v-6v-8h-137q-7 -13 -11 -20h148v-7v-7h-156q-7 -11 -15 -21h171v-6v-7h-182q-52 -64 -128 -100.5t-162 -36.5v377zM793 662h1v-377h-377h-95v7v7h95
q0 8 1 21h-96v6v7h98q0 8 3 21h-101v7v7h104q2 8 5 21h-109v6v7h113q2 3 4 10t4 10h-121v7v7h127q2 7 9 21h-136v7v6h144q6 12 12 21h-156v7v7h165q6 7 16 21h-181v6v7h190v-4q52 60 125.5 93.5t155.5 33.5z" />
    <glyph glyph-name="percent" unicode="%" horiz-adv-x="745" 
d="M635 199q6 -2 19 -7q8 -4 11 -7h-107q4 3 12 7q12 5 18 7h47zM532 157q2 4 5 7h149q1 0 5 -7q0 -1 1.5 -3t2.5 -3h-167q1 1 2 3t2 3zM702 130q1 -2 2 -6q0 -1 0.5 -3.5t0.5 -3.5h-186v7q1 1 1 3t1 3h181zM520 89q0 1 -0.5 3.5t-0.5 3.5h186q0 -1 -0.5 -3.5t-1 -3.5
t-1 -3.5t-0.5 -3.5h-180q0 1 -1 3.5t-1 3.5zM535 55q-4 5 -4 6h162q-1 -1 -2.5 -3t-1.5 -3q-1 -1 -3 -3.5t-3 -3.5h-143q-4 4 -5 7zM579 20q-9 4 -15 7h95q-6 -3 -15 -7q-15 -6 -32 -6q-14 0 -33 6zM213 603l12 -6h-107q3 2 11 6q13 6 19 7h47q6 -1 18 -7zM251 569
q3 -4 3 -7h-167q1 1 2.5 3.5t2 3.5t2.5 3.5t2 3.5h150q1 -1 5 -7zM264 534q0 -1 1 -6h-186v6q1 1 1 3.5t1 3.5h181q1 -1 1 -3.5t1 -3.5zM263 501q-1 -6 -1 -7h-180q0 1 -1 3.5t-1 3.5q-1 4 -1 6h185q0 -1 -0.5 -3t-0.5 -3zM248 466q-4 -5 -5 -7h-143q-4 5 -6 7q0 1 -1.5 3.5
t-2.5 3.5h162q0 -1 -1.5 -3.5t-2.5 -3.5zM171 426q-17 0 -32 6l-14 7h94q-7 -3 -15 -7q-16 -6 -33 -6zM705 498l-71 -70l-174 -175l-285 -285l-135 134l531 530l131 -131z" />
    <glyph glyph-name="ampersand" unicode="&#x26;" horiz-adv-x="834" 
d="M787 -93l7 -6h-377v-2q-102 0 -189 50.5t-137.5 137.5t-50.5 189.5t50.5 189t137.5 137t189 50.5v-380l1 -1h-1v-21h21l7 -6l6 -7h-35v-20h56l6 -7l7 -7h-69v-20h89l7 -7l7 -7h-103v-20h124l7 -7l6 -7h-137v-20h158l7 -7l7 -6h-172v-21h193l7 -6l6 -7h-206v-20h227l6 -7
l7 -7h-240v-20h261l7 -7l7 -7h-275v-20h296l6 -7l7 -6h-309v-21h330l7 -6l7 -7h-344v-20h364zM416 460q0 78 55 133t132.5 55t132.5 -55t55 -133t-55 -133t-132.5 -55t-132.5 55t-55 133z" />
    <glyph glyph-name="quotesingle" unicode="'" horiz-adv-x="267" 
d="M40 661h189v-6v-7h-189v7v6zM40 620v7h189v-7v-6h-189v6zM40 586v7h189v-7v-7h-189v7zM40 552v7h189v-7v-7h-189v7zM40 518v6h189v-6v-7h-189v7zM40 483v7h189v-7v-7h-189v7zM40 449v7h171l-7 -7l-7 -7h-157v7zM40 415v7h137l-7 -7l-7 -8h-123v8zM40 380v7h103l-7 -7
l-7 -6h-89v6zM40 346v7h68l-7 -7l-6 -7h-55v7zM40 311v7h34l-7 -7l-7 -6h-20v6z" />
    <glyph glyph-name="parenleft" unicode="(" horiz-adv-x="340" 
d="M261 606q3 1 8.5 3.5t8.5 3.5q7 3 19 7h3v-14h-39zM201 572q4 2 10 6q2 1 6 3.5t5 3.5h78v-13h-99zM159 537q2 3 8 7q1 1 4 3.5t4 3.5h125v-14h-141zM127 503q1 1 3 3.5t2 3.5q1 1 3 3.5t4 3.5h161v-14h-173zM101 469q1 1 2.5 3.5t2.5 3.5t2.5 3t2.5 3h189v-13h-199z
M82 434q1 4 3 7q1 1 2.5 3.5t1.5 3.5h211v-14h-218zM66 400q1 4 3 7q0 1 1 3l2 4h228v-14h-234zM55 366q1 4 2 7q0 1 0.5 3.5t1.5 3.5h241v-14h-245zM47 332q0 2 1 6.5t1 6.5h251v-13h-253zM42 297q0 5 1 7v3.5v3.5h257v-14h-258zM40 263q0 1 0.5 3.5t0.5 3.5v6h259v-13
h-260zM299 229h-257q0 1 -0.5 3.5t-0.5 3.5v3.5v3.5h259v-14h-1zM47 195q-1 1 -1 3t-0.5 3t-1 3.5t-0.5 3.5h256v-13h-253zM55 160q-1 1 -1.5 3.5t-0.5 3.5q-2 4 -2 7h249v-14h-245zM66 126q0 1 -1 3l-1.5 3t-1 3.5t-1.5 3.5h239v-13h-234zM81 92q-2 3 -3 7q-1 1 -2 3t-2 3
h226v-13h-219zM101 57l-4 7q-1 1 -2.5 3.5t-1.5 3.5h207v-14h-199zM126 23q-1 1 -2.5 3.5t-2.5 3.5t-2.5 3t-2.5 3h184v-13h-174zM159 -11q-2 1 -4 3t-4 3q-4 5 -6 7h155v-13h-141zM201 -45q-3 1 -10 6q-1 1 -4 3.5t-5 3.5h118v-13h-99zM261 -80q-3 1 -7.5 3.5t-6.5 3.5
t-6.5 3.5t-6.5 3.5h66v-14h-39z" />
    <glyph glyph-name="parenright" unicode=")" horiz-adv-x="340" 
d="M78 606h-38v14h3q12 -4 19 -7q3 -1 8.5 -3.5t7.5 -3.5zM139 572h-99v13h78q1 -1 5 -3.5t5 -3.5q7 -4 11 -6zM180 537h-140v14h125q1 -1 4 -3.5t4 -3.5q5 -4 7 -7zM213 503h-173v14h161q1 -1 3 -3.5t3 -3.5t3 -3.5t3 -3.5zM239 469h-199v13h189q1 -1 2.5 -3t2 -3t2.5 -3.5
t3 -3.5zM258 434h-218v14h211q0 -1 1.5 -3.5t2.5 -3.5q2 -3 3 -7zM274 400h-234v14h228l2 -4t1 -3q2 -3 3 -7zM285 366h-245v14h241q0 -1 1 -3.5t1 -3.5q1 -3 2 -7zM293 332h-253v13h251q0 -2 1 -6.5t1 -6.5zM298 297h-258v14h257v-3.5v-3.5q1 -2 1 -7zM300 263h-260v13h259
v-6q0 -1 0.5 -3.5t0.5 -3.5zM40 229v14h259v-3.5v-3.5t-0.5 -3.5t-0.5 -3.5h-258zM293 195h-253v13h256q0 -1 -0.5 -3.5t-1 -3.5t-0.5 -3t-1 -3zM285 160h-245v14h249q0 -3 -2 -7q0 -1 -1 -3.5t-1 -3.5zM274 126h-234v13h238q0 -1 -0.5 -3.5t-1 -3.5l-1.5 -3t-1 -3zM259 92
h-219v13h226q-1 -1 -2 -3t-2 -3q-1 -4 -3 -7zM239 57h-199v14h207q0 -1 -1.5 -3.5t-2.5 -3.5zM214 23h-174v13h184q-1 -1 -2.5 -3t-2.5 -3t-2.5 -3.5t-2.5 -3.5zM181 -11h-141v13h155q-2 -2 -6 -7q-2 -1 -4.5 -3t-3.5 -3zM139 -45h-99v13h117q-1 -1 -4 -3.5t-4 -3.5
q-8 -5 -10 -6zM79 -80h-39v14h66q-2 -1 -6.5 -3.5t-6.5 -3.5l-7 -3.5z" />
    <glyph glyph-name="asterisk" unicode="*" horiz-adv-x="452" 
d="M40 655h371v-7v-7h-184q0 1 -0.5 3.5t-0.5 3.5v0q0 -3 -2 -7h-184v7v7zM217 614q-1 -2 -2 -4.5l-1 -2.5h-174v7v6h179q0 -1 -1 -3t-1 -3zM236 614q-1 0 -2 2.5t-1 3.5h179v-6v-7h-174q0 1 -1 3t-1 4zM200 579q-4 -5 -6 -7h-154v7v7h164q-1 -1 -2 -3.5t-2 -3.5zM252.5 579
q-0.5 1 -2 3.5t-2.5 3.5h164v-7v-7h-155q0 1 -2 3.5t-2.5 3.5zM171 545q-4 -5 -7 -7h-124v7v6h138l-1 -1l-1 -1l-1 -1l-1 -1l-1 -1zM280 545l-7 6h138v-6v-7h-123q-3 2 -8 7zM123 510q-3 -1 -8.5 -3.5t-7.5 -3.5h-67v7v7h96q-2 -1 -6.5 -3.5t-6.5 -3.5zM329 510q-2 1 -13 7
h96v-7v-7h-67q-11 5 -16 7zM330 476q2 1 7.5 3.5t8.5 3.5h65v-7v-6h-94q2 1 6.5 3t6.5 3zM123 476q3 -1 7 -3.5t6 -2.5h-96v6v7h67q10 -4 16 -7zM281 442l7 7h124v-7v-7h-138zM172 442q1 -1 3 -3.5t3 -3.5h-138v7v7h125zM200 407q2 -3 3 -6h-163v6v7h155q1 -1 2.5 -3.5
t2.5 -3.5zM253 407q0 2 2 4.5l2 2.5h154v-7v-6h-163q1 1 2.5 3t2.5 3zM236 373q0 2 1 4t1 3h173v-7v-7h-178q0 1 1 3.5t2 3.5zM217 373q1 -4 2 -7h-179v7v7h174q0 -1 1 -3.5t2 -3.5zM226 339q1 1 1 3.5t1 3.5h183v-7v-7h-371v7v7h185q0 -3 1 -7v0z" />
    <glyph glyph-name="plus" unicode="+" horiz-adv-x="645" 
d="M228 582h186h4v-5v-7h-190v7v5zM228 543v6h190v-6v-7h-190v7zM228 508v7h190v-7v-1v-6h-190v7zM228 474v6h190v-6v-7h-190v7zM228 440v7h190v-7v-8h-190v8zM228 405v7h190v-7v-6h-190v6zM228 165v7h190v-7v-7h-190v7zM228 131v7h190v-7v-7h-190v7zM228 97v6h190v-6v-7
h-190v7zM228 62v7h190v-7v-7h-190v7zM228 28v7h190v-7v-7h-190v7zM228 395v-17h190v-7v-7h-190v-21h190v-7v-6h-190v-21h190v-7v-7h-190v-20h190v-7v-7h-190v-20h190v-7v-7h-190v-21h190v-7v-6h-190v6v6h-188v186v4h76h112zM418 395h187v-190h-187v83v107z" />
    <glyph glyph-name="comma" unicode="," horiz-adv-x="269" 
d="M40 89h189v-7v-7h-189v7v7zM40 48v7h189v-7v-7h-189v7zM40 14v6h189v-6v-7h-189v7zM40 -21v7h189v-7v-7h-189v7zM40 -55v7h189v-7v-7h-189v7zM40 -89v7h189v-7v-7h-189v7zM40 -124v7h171l-6 -7l-7 -6h-158v6zM40 -158v7h138l-7 -7l-8 -7h-123v7zM40 -192v7h103l-7 -7
l-6 -7h-90v7zM40 -226v6h69l-7 -6l-7 -7h-55v7zM40 -261v7h34l-6 -7l-7 -7h-21v7z" />
    <glyph glyph-name="hyphen" unicode="-" horiz-adv-x="471" 
d="M40 401h391v-6v-6h-391v6v6zM40 360v6h391v-6v-5h-391v5zM40 326v6h391v-6v-6h-391v6zM40 292v5h391v-5v-6h-391v6zM40 257v7h391v-7v-5h-391v5zM40 223v6h391v-6v-5h-391v5z" />
    <glyph glyph-name="period" unicode="." horiz-adv-x="266" 
d="M174 78q1 -1 11 -7h-106q3 3 11 7q12 5 18 6h48q6 -1 18 -6zM212 43q0 -1 1.5 -3.5t2.5 -3.5h-167l2 4t2 3t2.5 3.5t2.5 3.5h149q1 -1 5 -7zM225 9v-7h-185v7q1 1 1 3.5t1 3.5h181q1 -1 1 -3.5t1 -3.5zM41 -26q-1 6 -1 7h186q0 -1 -0.5 -3.5t-1 -3.5t-1 -3t-0.5 -3h-180
q0 1 -1 3t-1 3zM56 -59q-3 3 -4 6h162q-1 -1 -2.5 -3t-1.5 -3q-1 -1 -3 -3.5t-3 -3.5h-143q-4 4 -5 7zM100 -94q-9 3 -15 7h95q-6 -4 -15 -7q-15 -6 -32 -6q-14 0 -33 6z" />
    <glyph glyph-name="slash" unicode="/" horiz-adv-x="744" 
d="M594 608l7 -7h-63l7 7l8 7h34zM628 574l7 -7h-131l7 7l7 7h104zM663 540l7 -7h-200l7 7l7 7h171zM701 501l3 -2h-268l7 6l6 7h241l7 -7zM408 471l7 7h269l-7 -7l-7 -7h-269zM374 436l7 8h268l-6 -8l-7 -6h-269zM340 403l7 6h268l-7 -6l-7 -7h-268zM305 368l7 7h269l-7 -7
l-6 -7h-269zM271 334l7 7h269l-7 -7l-7 -7h-269zM237 299l7 8h268l-7 -8l-6 -6h-269zM203 266l6 6h269l-7 -6l-7 -8h-268zM168 231l7 7h269l-7 -7l-7 -7h-269zM134 197l6 6h269l-6 -6l-7 -7h-269zM99 162l8 8h268l-7 -8l-7 -7h-268zM65 128l7 7h268l-6 -7l-7 -7h-268zM47 94
l-7 7h267l-7 -7l-7 -7h-238zM82 59l-7 7h197l-7 -7l-6 -6h-171zM116 25l-7 7h129l-7 -7l-7 -7h-101zM151 -9l-7 7h59l-6 -7l-7 -7h-33z" />
    <glyph glyph-name="zero" unicode="0" horiz-adv-x="793" 
d="M535 627q3 -1 8.5 -3.5t7.5 -3.5h-155v7v7h120q12 -4 19 -7zM601 593q7 -5 11 -7h-216v7v6h195q1 -1 5 -3t5 -3zM646 558q5 -4 7 -7h-257v7v7h242q1 -1 4 -3.5t4 -3.5zM680 524l3 -3l3 -3h-290v6v7h278q1 -1 3 -3.5t3 -3.5zM706.5 490q0.5 -1 2.5 -3.5t3 -3.5h-316v7v7
h306q1 -1 2.5 -3.5t2 -3.5zM728 455q2 -3 3 -6h-335v6v7h328q0 -1 1.5 -3.5t2.5 -3.5zM744 421q2 -2 3 -7h-351v7v7h345q1 -1 2 -3.5t1 -3.5zM756 387q1 -3 2 -7h-362v7v7h358q0 -1 1 -3.5t1 -3.5zM765 353q1 -4 1 -7h-370v7v6h368q0 -2 1 -6zM770 318q1 -2 1 -7h-375v7v7
h374v-3.5v-3.5zM772 284q0 -1 0.5 -3.5t0.5 -3.5h-377v7v7h376v-7zM396 250v7h376v-3.5v-3.5t-0.5 -3.5t-0.5 -3.5h-375v7zM396 216v6h373q0 -1 -0.5 -3t-1 -3t-0.5 -3.5t-1 -3.5h-370v7zM396 181v7h366q0 -3 -2 -7q0 -1 -1 -3.5t-1 -3.5h-362v7zM396 147v6h355
q0 -1 -0.5 -3t-1 -3t-1.5 -3.5t-1 -3.5h-351v7zM396 113v7h343q-1 -1 -2 -3.5t-2 -3.5q-1 -4 -3 -7h-336v7zM396 78v7h324q0 -1 -1.5 -3.5t-2.5 -3.5l-4 -6h-316v6zM396 44v7h301q-1 -1 -2.5 -3.5t-2.5 -3.5t-2.5 -3.5t-2.5 -3.5h-291v7zM396 9v7h272l-2 -2l-2.5 -2.5
t-1.5 -2.5q-2 -1 -4.5 -3t-3.5 -3h-258v6zM396 -24v6h234q-1 -1 -4 -3t-4 -3q-8 -6 -10 -7h-216v7zM396 -59v7h183q-2 -1 -6.5 -3.5t-6.5 -3.5l-7 -3.5l-7 -3.5h-156v7zM396 -93v7h99q-9 -3 -29 -7q-32 -7 -70 -7v7zM20 277q0 102 50 189t137 137t190 50v-376v-377
q-103 0 -189.5 50.5t-137 137.5t-50.5 189z" />
    <glyph glyph-name="one" unicode="1" horiz-adv-x="832" 
d="M416 653h376v-753h-376v377v1h-376l7 7l6 7h363v20h-342l7 7l7 7h328v21h-308l8 6l6 7h294v21h-273l6 7l8 7h259v20h-239l7 7l7 7h225v20h-204l6 7l7 8h191v20h-170l7 7l7 6h156v21h-136l7 7l7 7h122v20h-102l7 7l7 7h88v20h-67l7 7l6 8h54v20h-33l7 7l7 6h19v19z" />
    <glyph glyph-name="two" unicode="2" horiz-adv-x="834" 
d="M417 653q102 0 189 -50t137.5 -137t50.5 -190h-377h-377q0 103 50.5 189.5t137.5 137t189 50.5zM417 277v-20h377v-6v-7h-377v-21h377v-7v-7h-377v-20h377v-7v-7h-377v-20h377v-8v-6h-377v-21h377v-6v-7h-377v-21h377v-7v-7h-377v-21h377v-6v-7h-377v-20h377v-8v-7h-377
v-20h377v-7v-6h-377v-21h377v-7v-7h-377v-21h377v-7v-6h-377v-1h-376z" />
    <glyph glyph-name="three" unicode="3" horiz-adv-x="457" 
d="M417 256v-7v-6v-21v-7v-7v-20v-7v-7v-21v-6v-7v-21v-7v-7v-20v-7v-7v-20v-7v-8v-20v-7v-6v-21v-7v-7v-21v-6v-7v-20v-7v-8h-377l188 188l19 18h-36l-7 7l-7 7h63l21 21h-105l-6 7l-7 6h132l20 21h-173l-7 7l-7 7h201l20 20h-241l-7 7l-7 7h269l21 21h-310l-8 6l-6 7h337
l20 20v-20zM232 462l-3 3l-189 188h377v-376h-376l7 7l7 7h348l-20 20h-307l7 7l6 7h280l-21 20h-238l7 7l7 7h211l-21 21h-170l7 6l7 7h142l-20 21h-102l7 7l7 7h74l-21 21h-32l7 6l6 7h6z" />
    <glyph glyph-name="four" unicode="4" horiz-adv-x="832" 
d="M416 634h377v-6v-7h-377v-20h377v-8v-7h-377v-20h377v-7v-7h-377v-20h377v-7v-7h-377v-21h377v-6v-7h-377v-20h377v-8v-7h-377v-20h377v-7v-7h-377v-20h377v-7v-7h-377v-21h377v-7v-6h-377v-21h377v-7v-7h-377v-20h377v-7v-7h-377v-21h377v-6v-7h-377v-21h377v-7v-7h-377
v-20h377v-7v-7h-377v-20h377v-8v-6h-377v-21h377v-6v-7h-377v-21h377v-7v-7h-377v-21h377v-6v-7h-377v-20h377v-8v-7h-377v-20h377v-7v-6h-377v-21h377v-7v-7h-377v-21h377v-7v-6h-377v-1h-376l376 753v-19z" />
    <glyph glyph-name="five" unicode="5" 
d="M793 277h-377h377q0 -1 -1 -7h-376v-20h376v-3.5v-3.5t-0.5 -3t-0.5 -4h-375v-20h373q0 -1 -0.5 -3.5t-1 -3.5t-0.5 -3t-1 -3h-370v-21h366q0 -1 -1 -3t-1 -3t-1 -3.5t-1 -3.5h-362v-20h356q-1 -2 -3 -7q0 -1 -1 -3.5t-1 -3.5h-351v-20h342q-1 -1 -2 -3.5t-2 -3.5
q-1 -3 -3 -7h-335v-20h324q-1 -1 -2.5 -3.5t-1.5 -3.5q-1 0 -5 -6h-315v-21h300q-1 -1 -2.5 -3t-2.5 -3t-3 -3.5t-3 -3.5h-289v-20h271l-1 -1l-1 -1l-1 -2l-2 -1l-1 -1l-1 -1l-3.5 -3.5l-3.5 -3.5h-257v-20h233q-1 -1 -4 -3.5t-5 -3.5q-7 -5 -9 -7h-215v-20h181
q-1 -1 -5.5 -3.5t-7.5 -3.5l-7 -3.5l-7 -3.5h-154v-20h97q-11 -3 -33 -7q-33 -5 -63 -5q-103 0 -189.5 50.5t-137 137.5t-50.5 189l376 376h377v-376z" />
    <glyph glyph-name="six" unicode="6" 
d="M417 277h376q0 -102 -50.5 -189t-137 -137.5t-188.5 -50.5t-189 50.5t-137.5 137.5t-50.5 189v1h377v-1zM417 649v-7h-93q13 3 33 7q28 4 60 4v-4zM417 615v-7h-181q3 1 7 3.5t6.5 3.5t7.5 3.5t8 3.5h152v-7zM417 580v-6h-232q1 1 4 3t5 3q7 6 9 7h214v-7zM417 546v-7
h-271l1 1l1 1l1 1l1 1l2 2l1 1l3.5 3.5t4.5 3.5h256v-7zM417 511v-6h-300l3 3l3 3q2 5 5 7h289v-7zM417 478v-7h-323q0 1 1.5 3.5t2.5 3.5l4 6h315v-6zM417 443v-7h-342l2 4t2 3q1 4 3 7h335v-7zM417 409v-7h-356q1 1 3 7q0 1 1 3.5t2 3.5h350v-7zM417 374v-6h-366q0 1 1 3
t1 3t1 3.5t1 3.5h362v-7zM417 340h-1v-7h-372q0 1 0.5 3.5t0.5 3.5t0.5 3.5t0.5 3.5h371v-7zM417 306h-1v-7h-376q0 1 0.5 3.5t0.5 3.5t0.5 3.5t0.5 3.5h375v-7z" />
    <glyph glyph-name="seven" unicode="7" 
d="M416 256v7h363l-7 -7l-7 -7h-349v7zM416 222v7h328l-6 -7l-7 -7h-315v7zM416 188v7h295l-7 -7l-8 -7h-280v7zM416 153v7h260l-7 -7l-6 -6h-247v6zM416 119v7h226l-7 -7l-7 -7h-212v7zM416 84v8h191l-7 -8l-6 -6h-178v6zM416 51v6h157l-6 -6l-8 -7h-143v7zM416 16v7h123
l-7 -7l-7 -7h-109v7zM416 -18v7h88l-6 -7l-7 -7h-75v7zM416 -53v8h54l-7 -8l-6 -6h-41v6zM416 -86v6h20l-7 -6l-7 -7h-6v7zM40 653h753v-376h-377h-376v376z" />
    <glyph glyph-name="eight" unicode="8" horiz-adv-x="834" 
d="M417 277q102 0 189 -50.5t137.5 -137.5t50.5 -189h-377h-377q0 102 50.5 189t137.5 137.5t189 50.5zM794 653q0 -102 -50.5 -188.5t-137 -137t-188.5 -51.5q-103 0 -189.5 50.5t-137 137.5t-50.5 189h376h377z" />
    <glyph glyph-name="nine" unicode="9" 
d="M416 653h377v-748h-377v377v20h-376v3.5v3.5t0.5 3.5t0.5 3.5h375v20h-373q0 1 0.5 3.5t1 3.5t0.5 3t1 3h371v21h-367q0 2 2 6q0 1 0.5 3.5t1.5 3.5h363v20h-356q0 1 0.5 3.5t1 3.5t1.5 3.5t1 3.5h351v20h-342q1 1 2 3.5t1 3.5q2 3 4 7h335v20h-324q0 1 1.5 3.5t2.5 3.5
l4 6h316v21h-301q1 1 2.5 3t2.5 3t2.5 3.5t2.5 3.5h291v21h-272h1l1 1l1 2l1 1l1 1l1 1q2 1 4.5 3.5l3.5 3.5h259v20h-235q2 1 5 3.5t4 3.5q7 5 9 7h217v20h-184q2 1 6.5 3.5t6.5 3.5t7 3q5 3 7 4h156v20h-100q9 3 30 7q33 6 70 6z" />
    <glyph glyph-name="colon" unicode=":" horiz-adv-x="266" 
d="M175 543q1 -1 11 -7h-107q4 3 12 7q12 5 18 6h47q6 -1 19 -6zM212 508l4 -7h-167q1 1 2 3.5t2 3.5t2.5 3.5t2.5 3.5h150q0 -1 4 -7zM225 474q0 -1 0.5 -3.5t0.5 -3.5h-186v7q1 1 1 3t1 3h182q0 -1 0.5 -3t0.5 -3zM41 439q0 2 -0.5 4t-0.5 3h186q0 -1 -0.5 -3.5t-1 -3.5
t-1 -3.5t-0.5 -3.5h-180q0 1 -1 3.5t-1 3.5zM55.5 404.5q-1.5 2.5 -3.5 6.5h162q-1 -1 -2.5 -3t-1.5 -3q-1 -1 -3 -3.5t-3 -3.5h-143q-4 4 -5.5 6.5zM100 371q-7 2 -14 7h94q-6 -4 -15 -7q-15 -6 -32 -6q-14 0 -33 6zM175 78q1 -1 11 -7h-107q4 3 12 7q12 5 18 6h47
q6 -1 19 -6zM212 43q3 -3 4 -7h-167l2 4t2 3t2.5 3.5t2.5 3.5h150q0 -1 4 -7zM225 9q0 -1 0.5 -3.5t0.5 -3.5h-186v7q1 1 1 3.5t1 3.5h182q0 -1 0.5 -3.5t0.5 -3.5zM41 -26q0 2 -0.5 4t-0.5 3h186q0 -1 -0.5 -3.5t-1 -3.5t-1 -3t-0.5 -3h-180q0 1 -1 3t-1 3zM56 -59
q-3 4 -4 6h162q-1 -1 -2.5 -3t-1.5 -3q-1 -1 -3 -3.5t-3 -3.5h-143q-4 4 -5 7zM100 -94q-11 5 -14 7h94q-6 -4 -15 -7q-15 -6 -32 -6q-14 0 -33 6z" />
    <glyph glyph-name="semicolon" unicode=";" horiz-adv-x="276" 
d="M40 89h189v-7v-7h-189v7v7zM40 48v7h189v-7v-7h-189v7zM40 14v6h189v-6v-7h-189v7zM40 -21v7h189v-7v-7h-189v7zM40 -55v7h189v-7v-7h-189v7zM40 -89v7h189v-7v-7h-189v7zM40 -124v7h171l-7 -7l-7 -6h-157v6zM40 -158v7h137l-7 -7l-7 -7h-123v7zM40 -192v7h103l-7 -7
l-7 -7h-89v7zM40 -226v6h68l-6 -6l-7 -7h-55v7zM40 -261v7h34l-7 -7l-7 -7h-20v7zM185 543q1 -1 11 -7h-107q4 3 12 7q12 5 18 6h47q6 -1 19 -6zM222 508l4 -7h-167q1 1 2 3.5t2 3.5t2.5 3.5t2.5 3.5h150q0 -1 4 -7zM235 474q0 -1 0.5 -3.5t0.5 -3.5h-186v7q1 1 1 3t1 3h182
q0 -1 0.5 -3t0.5 -3zM51 439q0 2 -0.5 4t-0.5 3h186q0 -1 -0.5 -3.5t-1 -3.5t-1 -3.5t-0.5 -3.5h-180q0 1 -1 3.5t-1 3.5zM65.5 404.5q-1.5 2.5 -3.5 6.5h162q-1 -1 -2.5 -3t-1.5 -3q-1 -1 -3 -3.5t-3 -3.5h-143q-4 4 -5.5 6.5zM110 371q-7 2 -14 7h94q-6 -4 -15 -7
q-15 -6 -32 -6q-14 0 -33 6z" />
    <glyph glyph-name="less" unicode="&#x3c;" horiz-adv-x="267" 
d="M218 486l7 7h2v-7v-7h-16zM184 452l7 7h36v-7v-7h-50zM149 418l7 6h71v-6v-7h-84zM115 383l7 7h105v-7v-7h-119zM81 349l7 7h139v-7v-7h-153zM47 315l6 7h174v-7v-7h-187zM227 280v-6h-155l-6 6l-7 7h168v-7zM227 246v-7h-120l-7 7l-7 7h134v-7zM227 211v-6h-86l-7 6
l-7 8h100v-8zM227 178v-8h-52l-7 8l-7 6h66v-6zM227 143v-7h-18l-6 7l-7 7h31v-7z" />
    <glyph glyph-name="equal" unicode="=" horiz-adv-x="645" 
d="M301 495h304v-190h-565v186v4h76h185zM40 282v7h565v-7v-7h-565v7zM40 248v7h565v-7v-7h-565v7zM40 214v6h565v-6v-7h-565v7zM40 179v7h565v-7v-7h-565v7zM40 145v7h565v-7v-7h-565v7zM40 111v7h565v-7v-6h-565v6z" />
    <glyph glyph-name="greater" unicode="&#x3e;" horiz-adv-x="267" 
d="M49 479l6 -7h-15v7v7h2zM83 445l7 -7h-50v7v7h36zM118 411l6 -7h-84v7v7h70zM151 376l8 -6h-119v6v7h105zM186 342l7 -7h-153v7v7h139zM220 308l7 -7h-187v7v7h173zM40 274v6h168l-7 -6l-6 -7h-155v7zM40 239v7h134l-7 -7l-7 -7h-120v7zM40 205v6h99l-7 -6l-6 -7h-86v7z
M40 170v8h65l-6 -8l-8 -6h-51v6zM40 136v7h31l-7 -7l-7 -6h-17v6z" />
    <glyph glyph-name="question" unicode="?" horiz-adv-x="457" 
d="M214 98v1h-124h-50v565h82q120 0 205 -84.5t85 -205.5q0 -95 -55.5 -170.5t-142.5 -105.5zM40 85h377v-7v-6h-377v6v7zM40 44v7h377v-7v-7h-377v7zM40 9v8h377v-8v-6h-377v6zM40 -24v6h377v-6v-7h-377v7zM40 -59v7h377v-7v-7h-377v7zM40 -93v7h377v-7v-7h-377v7z" />
    <glyph glyph-name="at" unicode="@" 
d="M126 36q-4 5 -5 7h295v-7v-7h-284q-1 1 -3 3.5t-3 3.5zM159 2q-1 1 -3.5 3t-4.5 4h265v-7v-7h-250l-3.5 3.5zM201 -32q-2 1 -9 6h224v-6v-7h-205q-1 1 -4.5 3.5t-5.5 3.5zM261 -67l-7 3.5l-7 3.5h169v-7v-7h-139q-10 4 -16 7zM416 -100q-31 0 -65 5h65v-5zM709 70l4 -6
h-297v-9v0h-301l4 9h-13q-1 1 -5 7q-1 1 -5 7h30l10 20h-52q0 1 -1 3.5t-2 3.5t-2 3t-2 3h66l10 21h-85q0 1 -1 3.5t-1.5 3.5l-1.5 3t-1 3h98l10 21h-115q-1 1 -1.5 3t-1 3t-1 3.5t-0.5 3.5h125l11 20h-141q0 1 -0.5 3.5t-1 3.5t-0.5 3.5t-1 3.5h151l10 20h-163
q0 1 -0.5 3.5t-0.5 3.5q-1 2 -1 7h172l10 20h-182v7v6h189l10 21h-199q0 1 0.5 3t0.5 3t0.5 3.5t0.5 3.5h204l11 20h-213q1 1 1 3.5t0.5 3.5t1 3.5t0.5 3.5h216l10 20h-222q0 1 1 3.5t1 3.5t1 3.5t1 3.5h226l10 20h-228q0 1 1 3.5t1.5 3.5t1.5 3.5t1 3.5h230l10 20h-231
q1 3 3 7q1 1 2 3t2 3h231l10 21h-230q1 0 5 6q0 1 4 7h228l10 20h-222q1 1 2.5 3.5t2.5 3.5t3 3.5t4 3.5h216l11 20h-209l3.5 3.5t4 3.5t3.5 3.5t4 3.5h201l10 20h-186q7 5 9 7q2 1 5.5 3t4.5 3h174l10 21h-149q3 1 7 3q6 3 8 3q2 1 7.5 3.5t8.5 3.5h125l14 27l2 4v0v-31h16
l3 -7l3 -7h-22v-20h32l4 -7l3 -7h-39v-20h50l3 -7l4 -7h-57v-20h67l3 -7l4 -6h-74v-21h84l4 -6l3 -7h-91v-20h101l4 -7l3 -7h-108v-20h118l4 -7l3 -7h-125v-20h136l3 -7l4 -6h-143v-21h153l3 -6l3 -7h-159v-20h170l4 -7l3 -7h-177v-20h187l4 -7l3 -7h-194v-20h204l3 -7l4 -7
h-211v-20h222l3 -7l3 -6h-228v-21h238l4 -6l3 -7h-245v-20h255l4 -7l3 -7h-262v-20h273l3 -7l4 -7h-280v-20h290zM416 649q102 -1 188.5 -50.5t137.5 -135t51 -186.5q0 -102 -50.5 -189t-137.5 -137.5t-189 -50.5v154h301z" />
    <glyph glyph-name="A" unicode="A" 
d="M790 -93l3 -6h-376v-1h-377l377 753v-19h9l3 -6l4 -7h-16v-21h27l3 -7l3 -7h-33v-20h44l3 -7l3 -7h-50v-20h60l4 -7l3 -7h-67v-21h78l3 -6l4 -7h-85v-21h95l3 -7l4 -7h-102v-20h112l4 -7l3 -7h-119v-20h129l4 -7l3 -7h-136v-21h146l4 -7l3 -6h-153v-21h164l3 -7l4 -7
h-171v-20h181l3 -8l3 -6h-187v-21h198l3 -6l3 -8h-204v-20h215l4 -7l3 -7h-222v-20h232l3 -7l4 -7h-239v-21h249l4 -7l3 -6h-256v-21h267l3 -6l3 -8h-273v-20h283l4 -7l3 -7h-290v-21h301l3 -6l4 -7h-308v-21h318l3 -7l4 -7h-325v-20h335l3 -7l4 -7h-342v-20h352l4 -7l3 -7
h-359v-21h369z" />
    <glyph glyph-name="B" unicode="B" horiz-adv-x="456" 
d="M416 657q0 -103 -50.5 -189.5t-137 -137t-188.5 -50.5v377h376zM178 253q11 -4 16 -6h-154v6v7h119q12 -3 19 -7zM244 219q7 -4 11 -7h-215v7v7h194q1 -1 5 -3.5t5 -3.5zM290 185q4 -5 7 -7h-257v7v7h242l3.5 -3.5t4.5 -3.5zM323 151q2 -3 7 -7h-290v7v6h277l3 -3z
M350.5 116q0.5 -1 2 -3.5t2.5 -3.5h-315v7v7h306q0 -1 2 -3.5t2.5 -3.5zM371 82l4 -7h-335v7v7h327q1 -1 2.5 -3.5t1.5 -3.5zM388 48q0 -2 1 -4t1 -3h-350v7v7h345q0 -1 1 -3.5t2 -3.5zM400 14q0 -3 2 -7h-362v7v6h358q0 -1 0.5 -3t1.5 -3zM409 -21q0 -1 0.5 -3.5t0.5 -3.5
h-370v7v7h367q0 -3 2 -7zM414 -55q0 -1 0.5 -3.5t0.5 -3.5h-375v7v6h373q0 -1 0.5 -3t0.5 -3zM416 -89v-7h-376v7v7h376v-7z" />
    <glyph glyph-name="C" unicode="C" horiz-adv-x="457" 
d="M40 277q0 102 50.5 189t137.5 137t189 50v-376v-377q-102 0 -189 50.5t-137.5 137.5t-50.5 189z" />
    <glyph glyph-name="D" unicode="D" horiz-adv-x="457" 
d="M417 277q0 -102 -50.5 -189t-137.5 -137.5t-189 -50.5v377v376q103 0 189.5 -50t137 -137t50.5 -189z" />
    <glyph glyph-name="E" unicode="E" 
d="M416.5 653q102.5 0 189 -50t137 -137t50.5 -190h-376h-377q0 103 50.5 189.5t137 137t189 50.5zM40 257h377v-6v-7h-375q-1 2 -1 7q0 1 -0.5 3t-0.5 3zM44 216v3.5v3.5h372v-7v-7h-370q-1 1 -1 3.5t-1 3.5zM52 182q-2 5 -2 7h367v-7v-7h-363q-1 1 -1.5 3.5t-0.5 3.5z
M63 147q-1 5 -3 7h357v-7v-6h-352q0 1 -1 3t-1 3zM77 114q-1 1 -2 3t-1 3h342v-6v-7h-336q-1 1 -2 3t-1 4zM96 79q-3 3 -4 7h325v-7v-7h-317q0 1 -4 7zM120 45l-3 3t-2 3h302v-6v-7h-292q-1 1 -2.5 3.5t-2.5 3.5zM150 10l-1 1l-1 1l-1 1l-1 2l-1 1l-1 1h273v-7v-7h-259
q-3 2 -8 7zM190 -24q-8 6 -9 7h236v-7v-6h-218q-2 1 -5 3t-4 3zM244 -58q-2 1 -6 3.5t-6 3.5h185v-7v-7h-158q-10 4 -15 7zM342 -93q-19 4 -28 7h102v-7v-6h-18q-24 1 -56 6z" />
    <glyph glyph-name="F" unicode="F" 
d="M40 274v377h753v-377h-753zM40 257h376v-7v-7h-376v7v7zM40 216v6h376v-6v-7h-376v7zM40 181v7h376v-7v-7h-376v7zM40 147v7h376v-7v-7h-376v7zM40 113v7h376v-7v-8h-376v8zM40 78v7h376v-7v-6h-376v6zM40 44v7h376v-7v-7h-376v7zM40 9v7h376v-7v-6h-376v6zM40 -24v6h376
v-6v-8h-376v8zM40 -59v7h376v-7v-7h-376v7zM40 -93v7h376v-7v-7h-376v7z" />
    <glyph glyph-name="G" unicode="G" 
d="M417 257v-4h376q0 -1 -0.5 -3.5t-0.5 -3.5v-3.5v-3.5h-375v-20h373q-1 -1 -1 -3.5t-0.5 -3.5t-1 -3.5t-0.5 -3.5h-370v-20h366q0 -3 -1 -7q-1 -1 -1.5 -3t-1.5 -3h-362v-21h356l-0.5 -0.5t-0.5 -1.5q0 -2 -1 -4q0 -1 -0.5 -1.5l-0.5 -0.5q0 -1 -1 -2.5t-1 -2.5l-0.5 -1
l-0.5 -1h-350v-19h342v-1v-1q-1 -1 -1.5 -2.5t-0.5 -2.5l-0.5 -1l-0.5 -1q0 -1 -1.5 -2.5t-1.5 -2.5l-0.5 -0.5t-0.5 -1.5h-335v-19h325q-1 -1 -2.5 -3t-1.5 -3q-1 -1 -5 -7h-316v-20h302q-1 -1 -3 -3.5t-3 -3.5t-2.5 -3.5t-2.5 -3.5h-291v-20h273l-7 -7l-3.5 -3.5
t-4.5 -3.5h-258v-20h235q-1 -1 -4 -3.5t-4 -3.5q-2 -1 -5 -3t-5 -3h-217v-21h185q-2 -1 -6.5 -3t-6.5 -3l-7 -3.5l-7 -3.5h-158v-20h102q-10 -3 -29 -7q-32 -6 -56 -7h-17v-1q-103 0 -189.5 50.5t-137 137.5t-50.5 189.5t50.5 189t137 137t189.5 50.5v-376v-20z" />
    <glyph glyph-name="H" unicode="H" 
d="M40 -100v753h377v-753h-377zM417 634h376v-6v-7h-376v7v6zM417 593v8h376v-8v-7h-376v7zM417 559v7h376v-7v-7h-376v7zM417 525v7h376v-7v-7h-376v7zM417 491v6h376v-6v-7h-376v7zM417 456v8h376v-8v-7h-376v7zM417 422v7h376v-7v-7h-376v7zM417 388v7h376v-7v-7h-376v7z
M417 353v7h376v-7v-6h-376v6zM417 319v7h376v-7v-7h-376v7zM417 285v7h376v-7v-7h-376v7zM417 251v6h376v-6v-7h-376v7zM417 216v7h376v-7v-7h-376v7zM417 182v7h376v-7v-7h-376v7zM417 147v8h376v-8v-6h-376v6zM417 114v6h376v-6v-7h-376v7zM417 79v7h376v-7v-7h-376v7z
M417 45v6h376v-6v-7h-376v7zM417 10v8h376v-8v-7h-376v7zM417 -24v7h376v-7v-6h-376v6zM417 -58v7h376v-7v-7h-376v7zM417 -93v7h376v-7v-6h-376v6z" />
    <glyph glyph-name="I" unicode="I" horiz-adv-x="457" 
d="M40 -100v753h377v-753h-377z" />
    <glyph glyph-name="J" unicode="J" 
d="M416 255h376v-3v-3t-0.5 -3.5t-0.5 -3.5h-375v7v6zM416 214v7h373q0 -1 -0.5 -3.5t-1 -3.5t-0.5 -3.5t-1 -3.5h-370v7zM416 180v6h366q0 -1 -1 -3t-1 -3t-1 -3.5t-1 -3.5h-362v7zM416 146v7h356q-1 -2 -3 -7q0 -1 -1 -3.5t-1 -3.5h-351v7zM416 111v7h342q-1 -1 -2 -3.5
t-2 -3.5q-1 -3 -3 -6h-335v6zM416 77v7h324q-1 -1 -2.5 -3.5t-1.5 -3.5q-1 -1 -5 -7h-315v7zM416 43v6h300q-1 -1 -2.5 -3t-2.5 -3t-3 -3.5t-3 -3.5h-289v7zM416 9v7h271q-3 -4 -7 -7l-3.5 -3.5l-3.5 -3.5h-257v7zM416 -26v7h233q-1 -1 -4 -3.5t-5 -3.5q-7 -5 -9 -6h-215v6z
M416 -60v7h181q-1 -1 -5.5 -3.5t-7.5 -3.5l-7 -3.5l-7 -3.5h-154v7zM416 -95v7h96q-11 -3 -33 -7q-33 -5 -63 -5v5zM40 276v377h753v-377h-753z" />
    <glyph glyph-name="K" unicode="K" horiz-adv-x="831" 
d="M784 -92l7 -7h-374h-377v753h377v-19h355l-7 -7l-6 -6h-342v-21h321l-7 -7l-7 -7h-307v-20h287l-8 -8l-6 -6h-273v-21h252l-6 -6l-8 -7h-238v-21h218l-7 -7l-7 -7h-204v-20h183l-6 -7l-7 -7h-170v-20h149l-7 -8l-7 -6h-135v-21h115l-7 -6l-7 -8h-101v-20h81l-7 -7l-7 -7
h-67v-21h46l-6 -6l-7 -7h-33v-21h12l-7 -7l-5 -5v-22h17l7 -7l7 -7h-31v-20h52l6 -7l7 -7h-65v-21h86l7 -7l7 -6h-100v-21h121l6 -7l7 -7h-134v-20h154l7 -7l8 -7h-169v-21h189l7 -6l6 -7h-202v-21h223l7 -7l7 -6h-237v-21h258l7 -7l6 -7h-271v-20h292l7 -8l7 -6h-306v-21
h326l7 -6l7 -7h-340v-21h360z" />
    <glyph glyph-name="L" unicode="L" 
d="M416 257h377v-6v-7h-377v-21h377v-7v-7h-377v-20h377v-7v-7h-377v-20h377v-8v-6h-377v-21h377v-6v-7h-377v-21h377v-7v-7h-377v-21h377v-6v-7h-377v-20h377v-8v-7h-377v-20h377v-7v-6h-377v-21h377v-7v-7h-377v-21h377v-7v-6h-377v-1h-376v753h376v-396z" />
    <glyph glyph-name="M" unicode="M" 
d="M793 -100h-377l377 753v-753zM40 -100v753l376 -753h-376z" />
    <glyph glyph-name="N" unicode="N" 
d="M42 651l751 2v-1v-5v-7h-740l20 -20h720v-7v-7h-705l20 -21h685v-7v-6h-672l21 -21h651v-7v-7h-637l21 -20h616v-8v-6h-603l21 -21h582v-6v-7h-568l21 -21h547v-7v-7h-534l21 -20h513v-7v-7h-499l21 -20h478v-8v-6h-465l20 -21h445v-6v-7h-430l20 -21h410v-7v-7h-396
l20 -21h376v-6v-7h-361l20 -20h341v-8v-7h-327l20 -20h307v-7v-7h-293l21 -20h272v-7v-7h-259l21 -21h238v-7v-6h-224l21 -21h203v-7v-7h-190l21 -20h169v-7v-7h-155l21 -21h134v-6v-7h-121l21 -21h100v-7v-6h-86l20 -21h66v-7v-7h-52l20 -20h32v-7v-7h-18l18 -17h-3
l-750 -3v2v749v2z" />
    <glyph glyph-name="O" unicode="O" horiz-adv-x="835" 
d="M40 278.5q0 102.5 50.5 189.5t137.5 137.5t189.5 50.5t189.5 -50.5t137.5 -137.5t50.5 -189.5t-50.5 -189.5t-137.5 -137.5t-189.5 -50.5t-189.5 50.5t-137.5 137.5t-50.5 189.5z" />
    <glyph glyph-name="P" unicode="P" 
d="M417 653v-4h376v-7v-7h-376v-20h375q0 -1 -0.5 -3.5t-0.5 -3.5t-0.5 -3.5t-0.5 -3.5h-373v-20h370q0 -1 -0.5 -3.5t-0.5 -3.5q0 -2 -2 -6h-367v-21h362q-1 -1 -1.5 -3t-1 -3t-1 -3.5t-0.5 -3.5h-358v-20h350q0 -2 -1 -4l-1.5 -3t-1.5 -3.5t-1 -3.5h-345v-20h335
q0 -1 -1 -3.5t-2 -3.5t-2 -3.5t-2 -3.5h-328v-20h315q0 -1 -5 -7q0 -1 -2 -3.5t-2 -3.5h-306v-20h290q-1 -1 -3 -3.5t-3 -3.5l-3 -3l-3 -3h-278v-21h258q-2 -1 -4 -3t-3.5 -3t-4 -3.5t-4.5 -3.5h-242v-20h216q-2 -1 -5.5 -3.5t-5 -3.5t-5 -3.5t-5.5 -3.5h-195v-20h156
q-3 -1 -8.5 -3.5t-7.5 -3.5q-4 -1 -10 -3.5t-9 -3.5h-121v-20v-377h-377v753h377z" />
    <glyph glyph-name="Q" unicode="Q" horiz-adv-x="835" 
d="M795 277q0 -16 -1 -28v-10h-1l-350 -1v-20h350v-7v-7h-350v-20h350v-7v-7h-350v-20h350v-7v-7h-350v-20h350v-7v-6h-350v-21h350v-6v-7h-350v-20h350v-7v-7h-350v-20h350v-7v-7h-350v-20h350v-7v-6h-350v-21h350v-6v-7h-350v-20h350v-7v-7h-350q-4 0 -12.5 -0.5
t-13.5 -0.5q-102 0 -189 50.5t-137.5 137.5t-50.5 190t50.5 190t137.5 137.5t189.5 50.5t189.5 -50.5t137.5 -137.5t50.5 -190z" />
    <glyph glyph-name="R" unicode="R" 
d="M777 -86l8 -11l7 -7h-375v-1h-377v754h376h377q0 -103 -50.5 -189.5t-137.5 -137t-189 -50.5v-2v-18h18l7 -7l7 -6h-32v-21h53l6 -7l7 -6h-66v-21h87l7 -6l7 -7h-101v-20h121l7 -7l6 -7h-134v-20h155l7 -7l7 -7h-169v-20h190l7 -7l6 -6h-203v-21h224l7 -6l7 -7h-238v-20
h259l7 -7l6 -7h-272v-20h293l6 -7l7 -7h-306v-20h327l7 -7l7 -7h-341v-20h361z" />
    <glyph glyph-name="S" unicode="S" 
d="M416 277q0 -102 -50.5 -189t-137 -137.5t-188.5 -50.5v377h376zM416 277q0 102 50.5 189t137.5 137t189 50v-376h-377z" />
    <glyph glyph-name="T" unicode="T" 
d="M228 249v6h376v-6v-8h-376v8zM228 214v7h376v-7v-7h-376v7zM228 180v6h376v-6v-7h-376v7zM228 145v7h376v-7v-6h-376v6zM228 111v7h376v-7v-7h-376v7zM228 77v7h376v-7v-7h-376v7zM228 43v6h376v-6v-7h-376v7zM228 8v7h376v-7v-7h-376v7zM228 -26v7h376v-7v-7h-376v7z
M228 -60v7h376v-7v-7h-376v7zM228 -95v7h376v-7v-5h-376v5zM604 651h189v-376h-189h-376h-188v376h188h376z" />
    <glyph glyph-name="U" unicode="U" 
d="M416 277v-26h376v-3v-3t-0.5 -3.5t-0.5 -3.5h-375v-20h373q0 -1 -0.5 -3.5t-1 -3.5t-0.5 -3.5t-1 -3.5h-370v-20h366q0 -3 -1 -7q0 -1 -1 -3.5t-1 -3.5h-363v-20h356q0 -1 -1 -3.5t-1 -3.5t-1 -3l-2 -4h-351v-20h343q0 -1 -1 -3.5t-2 -3.5q-1 -3 -4 -6h-335v-21h324
q-1 -1 -2 -3t-2 -3t-5 -7h-316v-20h302q-1 -1 -2.5 -3.5t-2.5 -3.5t-3 -3.5t-3 -3.5h-291v-20h273q-1 -1 -2.5 -2t-2.5 -2.5t-2 -2.5l-3.5 -3.5l-3.5 -3.5h-259v-20h236q-2 -1 -5 -3.5t-4 -3.5q-2 -1 -5 -3t-4 -3h-218v-21h185q-2 -1 -6.5 -3t-6.5 -3l-7 -3.5l-7 -3.5h-158
v-20h103q-10 -3 -29 -7q-32 -6 -56 -7h-17v-1q-103 0 -189.5 50.5t-137 137.5t-50.5 189v377h376v-376zM416 634h377v-6v-7h-377v7v6zM416 593v8h377v-8v-7h-377v7zM416 559v7h377v-7v-7h-377v7zM416 525v7h377v-7v-7h-377v7zM416 491v6h377v-6v-7h-377v7zM416 456v8h377v-8
v-7h-377v7zM416 422v7h377v-7v-7h-377v7zM416 388v7h377v-7v-7h-377v7zM416 353v7h377v-7v-6h-377v6zM416 319v7h377v-7v-7h-377v7zM416 285v7h377v-7v-7h-377v7z" />
    <glyph glyph-name="V" unicode="V" 
d="M708 653h85l-3 -6l-4 -7l-370 -1v-21l359 2l-3 -7l-3 -8h-353v-21l343 1l-4 -7l-3 -6l-336 -2v-20l326 1l-4 -7l-4 -7l-318 -1v-20h308l-3 -7l-4 -6l-301 -1v-21l291 1l-3 -7l-4 -7h-284v-21l274 1l-4 -7l-3 -7l-267 -1v-20l257 1l-4 -7l-3 -7l-250 -1v-21l239 1l-3 -7
l-4 -6l-232 -1v-21l222 1l-3 -7l-3 -7l-216 -1v-20h205l-3 -7l-3 -6l-199 -1v-20h188l-4 -7l-3 -7h-181v-21l171 1l-3 -7l-4 -7h-164v-21h153l-3 -6l-3 -7l-147 -1v-20h136l-3 -7l-3 -7h-130v-20h120l-4 -7l-4 -7h-112v-21h102l-3 -7l-4 -6h-95v-21h85l-3 -7l-4 -7h-78v-20
h68l-4 -7l-3 -7h-61v-21h51l-4 -6l-3 -7l-44 -1v-20h34l-4 -7l-4 -7h-26v-21h16l-3 -6l-4 -7h-9v-19l-376 753h376h292z" />
    <glyph glyph-name="W" unicode="W" 
d="M793 653v-753l-189 377zM708 653h85l-3 -6l-4 -7l-370 -1v-21l360 2l-3 -7l-4 -8h-353v-21l343 1l-4 -7l-3 -6l-336 -2v-20l326 1l-4 -7l-3 -7l-319 -1v-20h308l-3 -7l-4 -6l-301 -1v-21l291 1l-3 -7l-4 -7h-284v-21l274 1l-4 -7l-3 -7l-267 -1v-20l257 1l-4 -7l-3 -7
l-250 -1v-21l240 1l-4 -7l-3 -6l-233 -1v-21l222 1l-3 -7l-3 -7l-216 -1v-20h205l-3 -7l-3 -6l-199 -1v-20h188l-4 -7l-3 -7h-181v-21l171 1l-3 -7l-4 -7h-164v-21h154l-3 -6l-4 -7l-147 -1v-20h136l-3 -7l-3 -7h-130v-20h120l-4 -7l-3 -7h-113v-21h102l-3 -7l-4 -6h-95v-21
h85l-3 -7l-4 -7h-78v-20h68l-3 -7l-4 -7h-61v-21h51l-4 -6l-3 -7l-44 -1v-20h34l-4 -7l-3 -7h-27v-21h16l-3 -6l-4 -7h-9v-19l-376 753h376h292z" />
    <glyph glyph-name="X" unicode="X" 
d="M416 299v-22l-376 376h376h377l-5 -4l-7 -7h-365v-21h344l-7 -7l-7 -7h-330v-21h310l-7 -6l-7 -7h-296v-20h276l-7 -8l-7 -6h-262v-21h241l-7 -7l-6 -6h-228v-21h207l-7 -7l-7 -7h-193v-21h173l-7 -6l-7 -7h-159v-20h138l-6 -8l-7 -7h-125v-20h104l-7 -7l-6 -7h-91v-20
h70l-7 -7l-7 -7h-56v-21h36l-8 -7l-6 -6h-22zM416 255v22l377 -377h-377v1h-376l4 4l7 7h365v21h-344l7 7l7 7h330v21h-309l6 6l7 7h296v20h-276l8 8l6 7h262v20h-241l7 7l6 7h228v20h-207l7 7l7 7h193v21h-172l6 6l7 7h159v21h-139l8 7l7 7h124v20h-104l7 7l7 7h90v20h-70
l7 7l7 7h56v21h-35l7 7l6 6h22z" />
    <glyph glyph-name="Y" unicode="Y" horiz-adv-x="831" 
d="M772 634h19v-6v-7h-33l-20 -21h53v-7v-7h-67l-21 -20h88v-7v-7h-101l-21 -20h122v-7v-7h-136l-20 -21h156v-6v-7h-170l-21 -21h191v-7v-7h-205l-20 -21h225v-6v-7h-239l-20 -20h259v-8v-7h-273l-20 -20h293v-7v-6h-307l-21 -21h328v-7v-7h-342l-20 -21h362v-7v-6h-375v-2
l-1 2h-1l-374 375h374h376zM414 250v7h377v-7v-7h-377v7zM414 216v7h377v-7v-7h-377v7zM414 182v7h377v-7v-7h-377v7zM414 147v7h377v-7v-6h-377v6zM414 113v7h377v-7v-7h-377v7zM414 79v7h377v-7v-7h-377v7zM414 45v6h377v-6v-7h-377v7zM414 10v7h377v-7v-7h-377v7z
M414 -24v6h377v-6v-7h-377v7zM414 -58v7h377v-7v-8h-377v8zM414 -93v7h377v-7v-6h-377v6z" />
    <glyph glyph-name="Z" unicode="Z" 
d="M40 653h377v-376zM417 277l376 -377h-376v377z" />
    <glyph glyph-name="bracketleft" unicode="[" horiz-adv-x="463" 
d="M217 655h206v-189h-192v-7v-6h-190v6v7v185v4h51h125zM231 425v-7h-190v7v7h190v-7zM231 390v-6h-190v7v6h190v-6v-1zM231 357v-8h-190v8v7h190v-7zM231 322v-6h-190v6v7h190v-7zM231 288v-7h-190v7v7h190v-7zM231 253v-6h-190v6v7h190v-7zM231 220v-8h-190v8v6h190v-6z
M231 185v-7h-190v7v7h190v-7zM231 151v-7h-190v7v6h190v-6zM231 116v-7h-190v7v7h190v-7zM216 91h15h190v-190h-190h-190h-1v185v5h1h50h125z" />
    <glyph glyph-name="backslash" unicode="\" horiz-adv-x="743" 
d="M198 608l7 -7h-62l7 7l6 7h36zM233 574l6 -7h-131l7 7l8 7h103zM267 540l7 -7h-199l6 7l7 7h172zM301 505l7 -6h-268l2 2l5 4l7 7h240zM335 471l7 -7h-269l-6 7l-7 7h269zM370 436l7 -6h-269l-7 6l-7 8h269zM404 403l7 -7h-269l-7 7l-6 6h268zM438 368l7 -7h-268l-7 7
l-8 7h269zM473 334l6 -7h-268l-7 7l-7 7h269zM507 299l7 -6h-269l-7 6l-7 8h269zM542 266l6 -8h-269l-6 8l-7 6h268zM575 231l7 -7h-268l-7 7l-7 7h269zM610 197l7 -7h-269l-7 7l-7 6h269zM644 162l7 -7h-269l-7 7l-6 8h268zM679 128l6 -7h-268l-7 7l-7 7h268zM437 101h266
l-7 -7l-7 -7h-238l-7 7zM478 59l-7 7h198l-7 -7l-7 -6h-170zM512 25l-6 7h128l-7 -7l-6 -7h-102zM547 -9l-7 7h60l-7 -7l-7 -7h-32z" />
    <glyph glyph-name="bracketright" unicode="]" horiz-adv-x="463" 
d="M245 655h125h51v-4v-185v-7v-6h-190v6v7h-191v189h205zM231 425v7h190v-7v-7h-190v7zM231 390v1v6h190v-6v-7h-190v6zM231 357v7h190v-7v-8h-190v8zM231 322v7h190v-7v-6h-190v6zM231 288v7h190v-7v-7h-190v7zM231 253v7h190v-7v-6h-190v6zM231 220v6h190v-6v-8h-190v8z
M231 185v7h190v-7v-7h-190v7zM231 151v6h190v-6v-7h-190v7zM231 116v7h190v-7v-7h-190v7zM247 91h125h49h2v-5v-185h-2h-190h-190v190h190h16z" />
    <glyph glyph-name="asciicircum" unicode="^" horiz-adv-x="448" 
d="M227 815h-6h-10l7 7l3 2v4h2l1 -1l1 1h2v-4l3 -2l6 -7h-9zM227 780h-6h-44l7 7l7 7h30h6h30l7 -7l7 -7h-44zM227 746h-6h-79l8 7l7 6h64h6h64l8 -6l6 -7h-78zM227 711h-6h-112l6 7l7 8h99h6h99l6 -8l7 -7h-112zM227 678h-6h-147l7 6l7 7h133h6h133l7 -7l7 -6h-147z
M401 650l7 -7h-181h-6h-181l7 7l6 7h168h6h167z" />
    <glyph glyph-name="underscore" unicode="_" horiz-adv-x="645" 
d="M40 84h565v-7v-7h-565v7v7zM40 43v7h565v-7v-7h-565v7zM40 9v7h565v-7v-8h-565v8zM40 -26v7h565v-7v-6h-565v6zM40 -60v7h565v-7v-7h-565v7zM40 -95v7h565v-7v-5h-565v5z" />
    <glyph glyph-name="grave" unicode="`" horiz-adv-x="267" 
d="M49 833l6 -7h-15v7v8h1zM82 799l7 -7h-49v7v7h36zM117 765l7 -7h-84v7v7h70zM151 730l7 -6h-118v6v7h105zM186 696l7 -7h-153v7v7h138zM220 662l7 -7h-187v7v7h173z" />
    <glyph glyph-name="a" unicode="a" 
d="M790 -93l3 -6h-376v-1h-377l377 753v-19h9l3 -6l4 -7h-16v-21h27l3 -7l3 -7h-33v-20h44l3 -7l3 -7h-50v-20h60l4 -7l3 -7h-67v-21h78l3 -6l4 -7h-85v-21h95l3 -7l4 -7h-102v-20h112l4 -7l3 -7h-119v-20h129l4 -7l3 -7h-136v-21h146l4 -7l3 -6h-153v-21h164l3 -7l4 -7
h-171v-20h181l3 -8l3 -6h-187v-21h198l3 -6l3 -8h-204v-20h215l4 -7l3 -7h-222v-20h232l3 -7l4 -7h-239v-21h249l4 -7l3 -6h-256v-21h267l3 -6l3 -8h-273v-20h283l4 -7l3 -7h-290v-21h301l3 -6l4 -7h-308v-21h318l3 -7l4 -7h-325v-20h335l3 -7l4 -7h-342v-20h352l4 -7l3 -7
h-359v-21h369z" />
    <glyph glyph-name="b" unicode="b" horiz-adv-x="456" 
d="M416 657q0 -103 -50.5 -189.5t-137 -137t-188.5 -50.5v377h376zM178 253q11 -4 16 -6h-154v6v7h119q12 -3 19 -7zM244 219q7 -4 11 -7h-215v7v7h194q1 -1 5 -3.5t5 -3.5zM290 185q4 -5 7 -7h-257v7v7h242l3.5 -3.5t4.5 -3.5zM323 151q2 -3 7 -7h-290v7v6h277l3 -3z
M350.5 116q0.5 -1 2 -3.5t2.5 -3.5h-315v7v7h306q0 -1 2 -3.5t2.5 -3.5zM371 82l4 -7h-335v7v7h327q1 -1 2.5 -3.5t1.5 -3.5zM388 48q0 -2 1 -4t1 -3h-350v7v7h345q0 -1 1 -3.5t2 -3.5zM400 14q0 -3 2 -7h-362v7v6h358q0 -1 0.5 -3t1.5 -3zM409 -21q0 -1 0.5 -3.5t0.5 -3.5
h-370v7v7h367q0 -3 2 -7zM414 -55q0 -1 0.5 -3.5t0.5 -3.5h-375v7v6h373q0 -1 0.5 -3t0.5 -3zM416 -89v-7h-376v7v7h376v-7z" />
    <glyph glyph-name="c" unicode="c" horiz-adv-x="457" 
d="M40 277q0 102 50.5 189t137.5 137t189 50v-376v-377q-102 0 -189 50.5t-137.5 137.5t-50.5 189z" />
    <glyph glyph-name="d" unicode="d" horiz-adv-x="457" 
d="M417 277q0 -102 -50.5 -189t-137.5 -137.5t-189 -50.5v377v376q103 0 189.5 -50t137 -137t50.5 -189z" />
    <glyph glyph-name="e" unicode="e" 
d="M416.5 653q102.5 0 189 -50t137 -137t50.5 -190h-376h-377q0 103 50.5 189.5t137 137t189 50.5zM40 257h377v-6v-7h-375q-1 2 -1 7q0 1 -0.5 3t-0.5 3zM44 216v3.5v3.5h372v-7v-7h-370q-1 1 -1 3.5t-1 3.5zM52 182q-2 5 -2 7h367v-7v-7h-363q-1 1 -1.5 3.5t-0.5 3.5z
M63 147q-1 5 -3 7h357v-7v-6h-352q0 1 -1 3t-1 3zM77 114q-1 1 -2 3t-1 3h342v-6v-7h-336q-1 1 -2 3t-1 4zM96 79q-3 3 -4 7h325v-7v-7h-317q0 1 -4 7zM120 45l-3 3t-2 3h302v-6v-7h-292q-1 1 -2.5 3.5t-2.5 3.5zM150 10l-1 1l-1 1l-1 1l-1 2l-1 1l-1 1h273v-7v-7h-259
q-3 2 -8 7zM190 -24q-8 6 -9 7h236v-7v-6h-218q-2 1 -5 3t-4 3zM244 -58q-2 1 -6 3.5t-6 3.5h185v-7v-7h-158q-10 4 -15 7zM342 -93q-19 4 -28 7h102v-7v-6h-18q-24 1 -56 6z" />
    <glyph glyph-name="f" unicode="f" 
d="M40 274v377h753v-377h-753zM40 257h376v-7v-7h-376v7v7zM40 216v6h376v-6v-7h-376v7zM40 181v7h376v-7v-7h-376v7zM40 147v7h376v-7v-7h-376v7zM40 113v7h376v-7v-8h-376v8zM40 78v7h376v-7v-6h-376v6zM40 44v7h376v-7v-7h-376v7zM40 9v7h376v-7v-6h-376v6zM40 -24v6h376
v-6v-8h-376v8zM40 -59v7h376v-7v-7h-376v7zM40 -93v7h376v-7v-7h-376v7z" />
    <glyph glyph-name="g" unicode="g" 
d="M417 257v-4h376q0 -1 -0.5 -3.5t-0.5 -3.5v-3.5v-3.5h-375v-20h373q-1 -1 -1 -3.5t-0.5 -3.5t-1 -3.5t-0.5 -3.5h-370v-20h366q0 -3 -1 -7q-1 -1 -1.5 -3t-1.5 -3h-362v-21h356l-0.5 -0.5t-0.5 -1.5q0 -2 -1 -4q0 -1 -0.5 -1.5l-0.5 -0.5q0 -1 -1 -2.5t-1 -2.5l-0.5 -1
l-0.5 -1h-350v-19h342v-1v-1q-1 -1 -1.5 -2.5t-0.5 -2.5l-0.5 -1l-0.5 -1q0 -1 -1.5 -2.5t-1.5 -2.5l-0.5 -0.5t-0.5 -1.5h-335v-19h325q-1 -1 -2.5 -3t-1.5 -3q-1 -1 -5 -7h-316v-20h302q-1 -1 -3 -3.5t-3 -3.5t-2.5 -3.5t-2.5 -3.5h-291v-20h273l-7 -7l-3.5 -3.5
t-4.5 -3.5h-258v-20h235q-1 -1 -4 -3.5t-4 -3.5q-2 -1 -5 -3t-5 -3h-217v-21h185q-2 -1 -6.5 -3t-6.5 -3l-7 -3.5l-7 -3.5h-158v-20h102q-10 -3 -29 -7q-32 -6 -56 -7h-17v-1q-103 0 -189.5 50.5t-137 137.5t-50.5 189.5t50.5 189t137 137t189.5 50.5v-376v-20z" />
    <glyph glyph-name="h" unicode="h" 
d="M40 -100v753h377v-753h-377zM417 634h376v-6v-7h-376v7v6zM417 593v8h376v-8v-7h-376v7zM417 559v7h376v-7v-7h-376v7zM417 525v7h376v-7v-7h-376v7zM417 491v6h376v-6v-7h-376v7zM417 456v8h376v-8v-7h-376v7zM417 422v7h376v-7v-7h-376v7zM417 388v7h376v-7v-7h-376v7z
M417 353v7h376v-7v-6h-376v6zM417 319v7h376v-7v-7h-376v7zM417 285v7h376v-7v-7h-376v7zM417 251v6h376v-6v-7h-376v7zM417 216v7h376v-7v-7h-376v7zM417 182v7h376v-7v-7h-376v7zM417 147v8h376v-8v-6h-376v6zM417 114v6h376v-6v-7h-376v7zM417 79v7h376v-7v-7h-376v7z
M417 45v6h376v-6v-7h-376v7zM417 10v8h376v-8v-7h-376v7zM417 -24v7h376v-7v-6h-376v6zM417 -58v7h376v-7v-7h-376v7zM417 -93v7h376v-7v-6h-376v6z" />
    <glyph glyph-name="i" unicode="i" horiz-adv-x="457" 
d="M40 -100v753h377v-753h-377z" />
    <glyph glyph-name="j" unicode="j" 
d="M416 255h376v-3v-3t-0.5 -3.5t-0.5 -3.5h-375v7v6zM416 214v7h373q0 -1 -0.5 -3.5t-1 -3.5t-0.5 -3.5t-1 -3.5h-370v7zM416 180v6h366q0 -1 -1 -3t-1 -3t-1 -3.5t-1 -3.5h-362v7zM416 146v7h356q-1 -2 -3 -7q0 -1 -1 -3.5t-1 -3.5h-351v7zM416 111v7h342q-1 -1 -2 -3.5
t-2 -3.5q-1 -3 -3 -6h-335v6zM416 77v7h324q-1 -1 -2.5 -3.5t-1.5 -3.5q-1 -1 -5 -7h-315v7zM416 43v6h300q-1 -1 -2.5 -3t-2.5 -3t-3 -3.5t-3 -3.5h-289v7zM416 9v7h271q-3 -4 -7 -7l-3.5 -3.5l-3.5 -3.5h-257v7zM416 -26v7h233q-1 -1 -4 -3.5t-5 -3.5q-7 -5 -9 -6h-215v6z
M416 -60v7h181q-1 -1 -5.5 -3.5t-7.5 -3.5l-7 -3.5l-7 -3.5h-154v7zM416 -95v7h96q-11 -3 -33 -7q-33 -5 -63 -5v5zM40 276v377h753v-377h-753z" />
    <glyph glyph-name="k" unicode="k" horiz-adv-x="831" 
d="M784 -92l7 -7h-374h-377v753h377v-19h355l-7 -7l-6 -6h-342v-21h321l-7 -7l-7 -7h-307v-20h287l-8 -8l-6 -6h-273v-21h252l-6 -6l-8 -7h-238v-21h218l-7 -7l-7 -7h-204v-20h183l-6 -7l-7 -7h-170v-20h149l-7 -8l-7 -6h-135v-21h115l-7 -6l-7 -8h-101v-20h81l-7 -7l-7 -7
h-67v-21h46l-6 -6l-7 -7h-33v-21h12l-7 -7l-5 -5v-22h17l7 -7l7 -7h-31v-20h52l6 -7l7 -7h-65v-21h86l7 -7l7 -6h-100v-21h121l6 -7l7 -7h-134v-20h154l7 -7l8 -7h-169v-21h189l7 -6l6 -7h-202v-21h223l7 -7l7 -6h-237v-21h258l7 -7l6 -7h-271v-20h292l7 -8l7 -6h-306v-21
h326l7 -6l7 -7h-340v-21h360z" />
    <glyph glyph-name="l" unicode="l" 
d="M416 257h377v-6v-7h-377v-21h377v-7v-7h-377v-20h377v-7v-7h-377v-20h377v-8v-6h-377v-21h377v-6v-7h-377v-21h377v-7v-7h-377v-21h377v-6v-7h-377v-20h377v-8v-7h-377v-20h377v-7v-6h-377v-21h377v-7v-7h-377v-21h377v-7v-6h-377v-1h-376v753h376v-396z" />
    <glyph glyph-name="m" unicode="m" 
d="M793 -100h-377l377 753v-753zM40 -100v753l376 -753h-376z" />
    <glyph glyph-name="n" unicode="n" 
d="M42 651l751 2v-1v-5v-7h-740l20 -20h720v-7v-7h-705l20 -21h685v-7v-6h-672l21 -21h651v-7v-7h-637l21 -20h616v-8v-6h-603l21 -21h582v-6v-7h-568l21 -21h547v-7v-7h-534l21 -20h513v-7v-7h-499l21 -20h478v-8v-6h-465l20 -21h445v-6v-7h-430l20 -21h410v-7v-7h-396
l20 -21h376v-6v-7h-361l20 -20h341v-8v-7h-327l20 -20h307v-7v-7h-293l21 -20h272v-7v-7h-259l21 -21h238v-7v-6h-224l21 -21h203v-7v-7h-190l21 -20h169v-7v-7h-155l21 -21h134v-6v-7h-121l21 -21h100v-7v-6h-86l20 -21h66v-7v-7h-52l20 -20h32v-7v-7h-18l18 -17h-3
l-750 -3v2v749v2z" />
    <glyph glyph-name="o" unicode="o" horiz-adv-x="835" 
d="M40 278.5q0 102.5 50.5 189.5t137.5 137.5t189.5 50.5t189.5 -50.5t137.5 -137.5t50.5 -189.5t-50.5 -189.5t-137.5 -137.5t-189.5 -50.5t-189.5 50.5t-137.5 137.5t-50.5 189.5z" />
    <glyph glyph-name="p" unicode="p" 
d="M417 653v-4h376v-7v-7h-376v-20h375q0 -1 -0.5 -3.5t-0.5 -3.5t-0.5 -3.5t-0.5 -3.5h-373v-20h370q0 -1 -0.5 -3.5t-0.5 -3.5q0 -2 -2 -6h-367v-21h362q-1 -1 -1.5 -3t-1 -3t-1 -3.5t-0.5 -3.5h-358v-20h350q0 -2 -1 -4l-1.5 -3t-1.5 -3.5t-1 -3.5h-345v-20h335
q0 -1 -1 -3.5t-2 -3.5t-2 -3.5t-2 -3.5h-328v-20h315q0 -1 -5 -7q0 -1 -2 -3.5t-2 -3.5h-306v-20h290q-1 -1 -3 -3.5t-3 -3.5l-3 -3l-3 -3h-278v-21h258q-2 -1 -4 -3t-3.5 -3t-4 -3.5t-4.5 -3.5h-242v-20h216q-2 -1 -5.5 -3.5t-5 -3.5t-5 -3.5t-5.5 -3.5h-195v-20h156
q-3 -1 -8.5 -3.5t-7.5 -3.5q-4 -1 -10 -3.5t-9 -3.5h-121v-20v-377h-377v753h377z" />
    <glyph glyph-name="q" unicode="q" horiz-adv-x="835" 
d="M795 277q0 -16 -1 -28v-10h-1l-350 -1v-20h350v-7v-7h-350v-20h350v-7v-7h-350v-20h350v-7v-7h-350v-20h350v-7v-6h-350v-21h350v-6v-7h-350v-20h350v-7v-7h-350v-20h350v-7v-7h-350v-20h350v-7v-6h-350v-21h350v-6v-7h-350v-20h350v-7v-7h-350q-4 0 -12.5 -0.5
t-13.5 -0.5q-102 0 -189 50.5t-137.5 137.5t-50.5 190t50.5 190t137.5 137.5t189.5 50.5t189.5 -50.5t137.5 -137.5t50.5 -190z" />
    <glyph glyph-name="r" unicode="r" 
d="M777 -86l8 -11l7 -7h-375v-1h-377v754h376h377q0 -103 -50.5 -189.5t-137.5 -137t-189 -50.5v-2v-18h18l7 -7l7 -6h-32v-21h53l6 -7l7 -6h-66v-21h87l7 -6l7 -7h-101v-20h121l7 -7l6 -7h-134v-20h155l7 -7l7 -7h-169v-20h190l7 -7l6 -6h-203v-21h224l7 -6l7 -7h-238v-20
h259l7 -7l6 -7h-272v-20h293l6 -7l7 -7h-306v-20h327l7 -7l7 -7h-341v-20h361z" />
    <glyph glyph-name="s" unicode="s" 
d="M416 277q0 -102 -50.5 -189t-137 -137.5t-188.5 -50.5v377h376zM416 277q0 102 50.5 189t137.5 137t189 50v-376h-377z" />
    <glyph glyph-name="t" unicode="t" 
d="M228 249v6h376v-6v-8h-376v8zM228 214v7h376v-7v-7h-376v7zM228 180v6h376v-6v-7h-376v7zM228 145v7h376v-7v-6h-376v6zM228 111v7h376v-7v-7h-376v7zM228 77v7h376v-7v-7h-376v7zM228 43v6h376v-6v-7h-376v7zM228 8v7h376v-7v-7h-376v7zM228 -26v7h376v-7v-7h-376v7z
M228 -60v7h376v-7v-7h-376v7zM228 -95v7h376v-7v-5h-376v5zM604 651h189v-376h-189h-376h-188v376h188h376z" />
    <glyph glyph-name="u" unicode="u" 
d="M416 277v-26h376v-3v-3t-0.5 -3.5t-0.5 -3.5h-375v-20h373q0 -1 -0.5 -3.5t-1 -3.5t-0.5 -3.5t-1 -3.5h-370v-20h366q0 -3 -1 -7q0 -1 -1 -3.5t-1 -3.5h-363v-20h356q0 -1 -1 -3.5t-1 -3.5t-1 -3l-2 -4h-351v-20h343q0 -1 -1 -3.5t-2 -3.5q-1 -3 -4 -6h-335v-21h324
q-1 -1 -2 -3t-2 -3t-5 -7h-316v-20h302q-1 -1 -2.5 -3.5t-2.5 -3.5t-3 -3.5t-3 -3.5h-291v-20h273q-1 -1 -2.5 -2t-2.5 -2.5t-2 -2.5l-3.5 -3.5l-3.5 -3.5h-259v-20h236q-2 -1 -5 -3.5t-4 -3.5q-2 -1 -5 -3t-4 -3h-218v-21h185q-2 -1 -6.5 -3t-6.5 -3l-7 -3.5l-7 -3.5h-158
v-20h103q-10 -3 -29 -7q-32 -6 -56 -7h-17v-1q-103 0 -189.5 50.5t-137 137.5t-50.5 189v377h376v-376zM416 634h377v-6v-7h-377v7v6zM416 593v8h377v-8v-7h-377v7zM416 559v7h377v-7v-7h-377v7zM416 525v7h377v-7v-7h-377v7zM416 491v6h377v-6v-7h-377v7zM416 456v8h377v-8
v-7h-377v7zM416 422v7h377v-7v-7h-377v7zM416 388v7h377v-7v-7h-377v7zM416 353v7h377v-7v-6h-377v6zM416 319v7h377v-7v-7h-377v7zM416 285v7h377v-7v-7h-377v7z" />
    <glyph glyph-name="v" unicode="v" 
d="M708 653h85l-3 -6l-4 -7l-370 -1v-21l359 2l-3 -7l-3 -8h-353v-21l343 1l-4 -7l-3 -6l-336 -2v-20l326 1l-4 -7l-4 -7l-318 -1v-20h308l-3 -7l-4 -6l-301 -1v-21l291 1l-3 -7l-4 -7h-284v-21l274 1l-4 -7l-3 -7l-267 -1v-20l257 1l-4 -7l-3 -7l-250 -1v-21l239 1l-3 -7
l-4 -6l-232 -1v-21l222 1l-3 -7l-3 -7l-216 -1v-20h205l-3 -7l-3 -6l-199 -1v-20h188l-4 -7l-3 -7h-181v-21l171 1l-3 -7l-4 -7h-164v-21h153l-3 -6l-3 -7l-147 -1v-20h136l-3 -7l-3 -7h-130v-20h120l-4 -7l-4 -7h-112v-21h102l-3 -7l-4 -6h-95v-21h85l-3 -7l-4 -7h-78v-20
h68l-4 -7l-3 -7h-61v-21h51l-4 -6l-3 -7l-44 -1v-20h34l-4 -7l-4 -7h-26v-21h16l-3 -6l-4 -7h-9v-19l-376 753h376h292z" />
    <glyph glyph-name="w" unicode="w" 
d="M793 653v-753l-189 377zM708 653h85l-3 -6l-4 -7l-370 -1v-21l360 2l-3 -7l-4 -8h-353v-21l343 1l-4 -7l-3 -6l-336 -2v-20l326 1l-4 -7l-3 -7l-319 -1v-20h308l-3 -7l-4 -6l-301 -1v-21l291 1l-3 -7l-4 -7h-284v-21l274 1l-4 -7l-3 -7l-267 -1v-20l257 1l-4 -7l-3 -7
l-250 -1v-21l240 1l-4 -7l-3 -6l-233 -1v-21l222 1l-3 -7l-3 -7l-216 -1v-20h205l-3 -7l-3 -6l-199 -1v-20h188l-4 -7l-3 -7h-181v-21l171 1l-3 -7l-4 -7h-164v-21h154l-3 -6l-4 -7l-147 -1v-20h136l-3 -7l-3 -7h-130v-20h120l-4 -7l-3 -7h-113v-21h102l-3 -7l-4 -6h-95v-21
h85l-3 -7l-4 -7h-78v-20h68l-3 -7l-4 -7h-61v-21h51l-4 -6l-3 -7l-44 -1v-20h34l-4 -7l-3 -7h-27v-21h16l-3 -6l-4 -7h-9v-19l-376 753h376h292z" />
    <glyph glyph-name="x" unicode="x" horiz-adv-x="1000" 
d="M447 299v-22l-376 376h376h377l-5 -4l-7 -7h-365v-21h344l-7 -7l-6 -7h-331v-21h310l-6 -6l-8 -7h-296v-20h276l-7 -8l-7 -6h-262v-21h242l-7 -7l-7 -6h-228v-21h207l-7 -7l-6 -7h-194v-21h173l-7 -6l-7 -7h-159v-20h139l-7 -8l-7 -7h-125v-20h104l-6 -7l-7 -7h-91v-20
h70l-7 -7l-7 -7h-56v-21h36l-7 -7l-7 -6h-22zM447 255v22l377 -377h-377v1h-376l5 4l6 7h365v21h-344l7 7l7 7h330v21h-309l7 6l6 7h296v20h-275l7 8l7 7h261v20h-241l7 7l7 7h227v20h-206l6 7l7 7h193v21h-172l7 6l7 7h158v21h-138l7 7l7 7h124v20h-104l7 7l7 7h90v20h-69
l6 7l7 7h56v21h-35l7 7l7 6h21z" />
    <glyph glyph-name="y" unicode="y" horiz-adv-x="1000" 
d="M791 634h18v-6v-7h-33l-20 -21h53v-7v-7h-66l-21 -20h87v-7v-7h-101l-21 -20h122v-7v-7h-135l-21 -21h156v-6v-7h-170l-20 -21h190v-7v-7h-204l-21 -21h225v-6v-7h-238l-21 -20h259v-8v-7h-273l-20 -20h293v-7v-6h-307l-20 -21h327v-7v-7h-341l-21 -21h362v-7v-6h-375v-2
v2h-2l-373 375h373h377zM432 250v7h377v-7v-7h-377v7zM432 216v7h377v-7v-7h-377v7zM432 182v7h377v-7v-7h-377v7zM432 147v7h377v-7v-6h-377v6zM432 113v7h377v-7v-7h-377v7zM432 79v7h377v-7v-7h-377v7zM432 45v6h377v-6v-7h-377v7zM432 10v7h377v-7v-7h-377v7zM432 -24v6
h377v-6v-7h-377v7zM432 -58v7h377v-7v-8h-377v8zM432 -93v7h377v-7v-6h-377v6z" />
    <glyph glyph-name="z" unicode="z" horiz-adv-x="1000" 
d="M84 653h377v-376zM461 277l377 -377h-377v377z" />
    <glyph glyph-name="bar" unicode="|" horiz-adv-x="270" 
d="M40 635h190v-7v-6h-190v6v7zM40 594v7h190v-7v-7h-190v7zM40 560v7h190v-7v-7h-190v7zM40 526v6h190v-6v-7h-190v7zM40 491v7h190v-7v-7h-190v7zM40 457v7h190v-7v-7h-190v7zM40 422v8h190v-8v-6h-190v6zM40 389v6h190v-6v-7h-190v7zM40 354v7h190v-7v-7h-190v7zM40 320
v6h190v-6v-7h-190v7zM40 285v8h190v-8v-7h-190v7zM40 251v7h190v-7v-6h-190v6zM40 217v7h190v-7v-7h-190v7zM40 182v7h190v-7v-6h-190v6zM40 148v7h190v-7v-7h-190v7zM40 114v7h190v-7v-7h-190v7zM40 80v6h190v-6v-7h-190v7zM40 45v7h190v-7v-6h-190v6zM40 11v7h190v-7v-7
h-190v7zM40 -23v7h190v-7v-7h-190v7zM40 -57v6h190v-6v-7h-190v7zM40 -92v7h190v-7v-7h-190v7z" />
    <glyph glyph-name="exclamdown" unicode="&#xa1;" horiz-adv-x="457" 
d="M40 -101v549h377v-549h-377zM40 474v7h377v-7v-6h-377v6zM40 509v7h377v-7v-7h-377v7zM40 543v7h377v-7v-7h-377v7zM40 577v7h377v-7v-7h-377v7zM40 611v7h377v-7v-6h-377v6zM40 646v7h377v-7v-7h-377v7z" />
    <glyph glyph-name="dieresis" unicode="&#xa8;" horiz-adv-x="556" 
d="M465 786q8 -4 10 -6h-108q6 4 11.5 6.5t17.5 6.5h51q7 -1 18 -7zM502 753l3 -7h-167q1 1 2.5 3.5t2 3.5t2 3t2.5 3h150q1 0 5 -6zM515 718v-3.5v-3.5h-186q0 5 1 7q0 1 0.5 3.5t0.5 3.5h182q1 -1 1 -3.5t1 -3.5zM331 684q-1 4 -1 7h186q0 -1 -0.5 -3.5t-1 -3.5t-1 -3.5
t-0.5 -3.5h-180q0 1 -1 3.5t-1 3.5zM346 649q-1 2 -3 4.5l-2 2.5h163q-1 -1 -5 -7q-1 -1 -2.5 -3t-2.5 -3h-143q-4 4 -5 6zM391 616q-5 1 -15 6h92q-6 -3 -15 -6q-15 -6 -31 -6t-31 6zM177 786q6 -3 11 -6h-108q6 4 11 6.5t18 6.5h50q8 -1 18 -7zM213 753q1 -1 2 -3
q1 -3 2 -4h-167q0 1 1.5 3.5t2.5 3.5t2.5 3t2.5 3h150zM225 725q1 -4 1 -7q0 -1 0.5 -3.5t0.5 -3.5h-187q0 5 1 7q0 1 0.5 3.5t0.5 3.5h183zM42.5 684q-0.5 1 -1 3.5t-0.5 3.5h186q0 -1 -0.5 -3.5t-0.5 -3.5t-1 -3.5t-1 -3.5h-180q0 1 -0.5 3.5t-1 3.5zM57.5 649.5
q-1.5 2.5 -4.5 6.5h162q0 -1 -4 -7l-3 -3l-3 -3h-142q-4 4 -5.5 6.5zM102 616q-6 1 -14 6h92q-7 -3 -15 -6q-15 -6 -31 -6t-32 6z" />
    <glyph glyph-name="copyright" unicode="&#xa9;" horiz-adv-x="457" 
d="M306 636q9 -4 14 -6h-183q4 2 14 6q5 3 17 7h120q12 -4 18 -7zM417 458h-175v-20h174q-1 -1 -1 -3.5t-0.5 -3.5t-1 -3.5t-0.5 -3.5h-171v-20h165q0 -1 -1 -3.5t-1.5 -3.5l-1.5 -3t-2 -3h-159v-21h149q0 -1 -1.5 -3t-2 -3.5t-2.5 -3.5t-2 -3h-141v-21h124q-1 0 -2.5 -1.5
l-2.5 -2.5l-2 -2q-5 -5 -8 -7h-109v-4q-17 0 -33 4h-104q-2 1 -4 3.5t-4 3.5l-1.5 1.5t-2.5 3t-2 1.5h82q-15 9 -28 21h-71l-4 7q-1 1 -2.5 3t-1.5 3h66q-8 9 -14 21h-62q-1 1 -2 3t-1 3q-1 2 -3 7h60q-3 5 -7 20h-59q0 1 -0.5 3.5t-0.5 3.5q-2 4 -2 7h59q-2 9 -2 20h-58v6
v1v7h59q0 6 2 20h-59q0 1 0.5 3.5t1 3.5t0.5 3t1 3h61q5 14 8 21h-63q0 1 1 3l1.5 3t1.5 3.5t1 3.5h66q9 14 16 20h-72q1 1 2.5 3.5t2 3.5t2 3.5t2.5 3.5h78q16 12 35 20h-95q0 1 1.5 2.5l2.5 2.5l2 2q5 5 8 7h243q5 -5 8 -7l6 -7h-122v-20h140q1 -1 2.5 -3.5t2 -3.5t2 -3.5
t2.5 -3.5h-149v-20h159q0 -1 1 -3.5t1 -3.5q1 -1 3 -6h-164v-21h170q1 -1 1 -3t0.5 -3t1 -3.5t0.5 -3.5h-173v-20h175v-7v-1v-6zM147 294q-6 3 -13 7h188q-2 -1 -6 -3.5t-7 -3.5q-6 -3 -16 -7h-129q-12 4 -17 7z" />
    <glyph glyph-name="ordfeminine" unicode="&#xaa;" horiz-adv-x="455" 
d="M240 636l3 -8h-31l3 8l3 7h19zM257 601l4 -6h-67l3 6l4 7h53zM274 567l4 -7h-101l4 7l3 7h87zM291 532l4 -6h-135l4 6l3 7h121zM309 499l3 -8h-169l3 8l3 6h157zM326 464l3 -7h-203l3 7l4 7h189zM343 430l3 -7h-238l4 7l4 6h223zM360 395l4 -6h-273l4 6l3 7h259zM377 361
l4 -7h-307l4 7l3 7h293zM395 327l3 -7h-341l3 7l4 7h327zM412 293l3 -7h-375l3 7l4 6h361z" />
    <glyph glyph-name="guillemotleft" unicode="&#xab;" horiz-adv-x="395" 
d="M227 493v-7h-15l7 7l6 7h2v-7zM227 459v-7h-50l7 7l7 7h36v-7zM227 424v-6h-84l7 6l7 7h70v-7zM227 390v-7h-118l7 7l7 7h104v-7zM135 219l-7 7h99v-7v-8h-86zM169 184l-7 7h65v-7v-6h-51zM203 150l-7 7h31v-7v-7h-17zM353 500h2v-7v-7h-16l7 7zM312 459l7 7h36v-7v-7
h-50zM278 424l7 7h70v-7v-6h-84zM244 390l6 7h105v-7v-7h-118zM216 363h11h128v-7v-7h-128h-25h-127l6 7l7 7h128zM182 328h45h128v-6v-7h-128h-59h-128l7 7l7 6h128zM187 294h40h128v-7v-7h-128h-26h-128l-7 7l-7 7h128zM221 259h6h128v-6v-7h-120l-7 7l-1 1v-1v-7h-120
l-7 7l-6 6h127zM262 219l-6 7h99v-7v-8h-86zM297 184l-7 7h65v-7v-6h-51zM331 150l-7 7h31v-7v-7h-17z" />
    <glyph glyph-name="uni00AD" unicode="&#xad;" horiz-adv-x="471" 
d="M40 401h391v-6v-6h-391v6v6zM40 360v6h391v-6v-5h-391v5zM40 326v6h391v-6v-6h-391v6zM40 292v5h391v-5v-6h-391v6zM40 257v7h391v-7v-5h-391v5zM40 223v6h391v-6v-5h-391v5z" />
    <glyph glyph-name="registered" unicode="&#xae;" horiz-adv-x="458" 
d="M309 634q2 -1 6.5 -3.5t5.5 -2.5h-186q2 1 6.5 3t6.5 3q4 2 17 7h127q10 -3 17 -7zM358.5 600q1.5 -1 4 -3.5l3.5 -3.5h-274l6 7q5 5 8 7h245l3.5 -3.5t4 -3.5zM417 470q0 -4 1 -7v-1v-7h-183l20 -20h160q0 -1 -0.5 -3.5t-0.5 -3.5t-0.5 -3t-0.5 -3h-144l20 -21h118
q-1 -1 -2 -3l-1.5 -3t-1.5 -3.5t-1 -3.5h-99l21 -20h67q0 -1 -1.5 -3.5t-2 -3.5t-2.5 -3.5t-2 -3.5h-307q-1 1 -2.5 3.5t-2.5 3.5t-2 3.5t-2 3.5h66v20h-77q0 1 -1 3.5t-2 3.5q0 1 -2 6h82v21h-88q0 1 -0.5 3t-0.5 3t-0.5 3.5t-0.5 3.5h90v20h-92v7v1v7h91v20h-90
q0 1 0.5 3.5t1 3.5t0.5 3t1 3h88v21h-82q0 1 1 3l1.5 3t1.5 3.5t1 3.5h77v20h-66q1 1 2 3.5t2 3.5t2.5 3.5t2.5 3.5h307q1 -1 2.5 -3.5t2.5 -3.5t2 -3.5t2 -3.5h-66q0 -10 -2 -20h79q0 -1 1 -3.5t1 -3.5q1 -1 3 -6h-88q-4 -10 -11 -21h105q0 -1 0.5 -3t0.5 -3q1 -4 1 -7
h-119q-15 -14 -30 -20h151zM99 326l-7 6h272q-1 0 -2 -1.5t-2.5 -2.5t-2.5 -2l-7 -7h-243q-2 1 -4.5 3.5zM150 291l-14 7h185q-2 -1 -4.5 -2.5t-5 -2.5t-4.5 -2q-8 -3 -17 -7h-123q-12 5 -17 7z" />
    <glyph glyph-name="degree" unicode="&#xb0;" horiz-adv-x="458" 
d="M309 637q2 -1 6 -3.5t6 -3.5h-185q3 1 7 3.5t7 3.5q7 4 17 7h125q13 -5 17 -7zM358.5 603q1.5 -1 4 -3.5l3.5 -3.5h-273l2 2l2.5 2.5l2.5 2.5q4 4 7 6h244q1 -1 3.5 -3t4 -3zM388 568q2 -4 4 -7h-325q0 1 1.5 3.5t2 3.5t2.5 3.5t2 3.5h308q1 -1 2.5 -3.5t2.5 -3.5z
M405 534q1 -2 2 -6h-357q1 1 2 3t1 3t1.5 3.5t1.5 3.5h346q1 -1 2 -3.5t1 -3.5zM415 500q1 -4 1 -7h-374q1 1 1 3.5t0.5 3.5t1 3.5t0.5 3.5h368q1 -1 1 -3.5t1 -3.5zM418 466v-7h-378v7v6h378v-6zM44 431q-2 5 -2 7h375q-1 -1 -1 -3.5t-0.5 -3.5t-1 -3.5t-0.5 -3.5h-369
q0 1 -0.5 3.5t-0.5 3.5zM53 397q0 1 -1 3.5t-2 3.5h358q0 -1 -1 -3.5t-1.5 -3.5l-1.5 -3t-2 -3h-346q0 1 -1.5 3t-1.5 3zM70.5 363q-0.5 1 -2 3.5t-1.5 3.5h325q-1 -1 -2.5 -3.5t-2 -3.5t-2 -3.5t-2.5 -3.5h-308q0 1 -2 3.5t-2.5 3.5zM99 328l-7 7h273q-3 -3 -6 -7
q-5 -4 -8 -6h-244q-2 1 -4.5 3t-3.5 3zM150 294q-3 1 -7 3.5t-7 3.5h185q-2 -1 -6.5 -3.5t-6.5 -3.5q-7 -3 -17 -7h-124q-14 5 -17 7z" />
    <glyph glyph-name="acute" unicode="&#xb4;" horiz-adv-x="266" 
d="M225 841h1v-8v-7h-16l8 7zM183 799l7 7h36v-7v-7h-49zM149 765l7 7h70v-7v-7h-84zM115 730l6 7h105v-7v-6h-118zM80 696l7 7h139v-7v-7h-153zM46 662l7 7h173v-7v-7h-186z" />
    <glyph glyph-name="cedilla" unicode="&#xb8;" horiz-adv-x="267" 
d="M49 832l6 -6h-15v6v8h1zM82 799l8 -7h-50v7v6h36zM117 764l7 -7h-84v7v7h70zM151 730l7 -7h-118v7v6h105zM186 695l7 -6h-153v6v8h139zM220 661l7 -6h-187v6v7h173z" />
    <glyph glyph-name="ordmasculine" unicode="&#xba;" horiz-adv-x="458" 
d="M309 637q2 -1 6 -3.5t6 -3.5h-185q3 1 7 3.5t7 3.5q7 4 17 7h125q13 -5 17 -7zM358.5 603q1.5 -1 4 -3.5l3.5 -3.5h-273l2 2l2.5 2.5l2.5 2.5q4 4 7 6h244q1 -1 3.5 -3t4 -3zM388 568q2 -4 4 -7h-325q0 1 1.5 3.5t2 3.5t2.5 3.5t2 3.5h308q1 -1 2.5 -3.5t2.5 -3.5z
M405 534q1 -2 2 -6h-357q1 1 2 3t1 3t1.5 3.5t1.5 3.5h346q1 -1 2 -3.5t1 -3.5zM415 500q1 -4 1 -7h-374q1 1 1 3.5t0.5 3.5t1 3.5t0.5 3.5h368q1 -1 1 -3.5t1 -3.5zM418 466v-7h-378v7v6h378v-6zM44 431q-2 5 -2 7h375q-1 -1 -1 -3.5t-0.5 -3.5t-1 -3.5t-0.5 -3.5h-369
q0 1 -0.5 3.5t-0.5 3.5zM53 397q0 1 -1 3.5t-2 3.5h358q0 -1 -1 -3.5t-1.5 -3.5l-1.5 -3t-2 -3h-346q0 1 -1.5 3t-1.5 3zM70.5 363q-0.5 1 -2 3.5t-1.5 3.5h325q-1 -1 -2.5 -3.5t-2 -3.5t-2 -3.5t-2.5 -3.5h-308q0 1 -2 3.5t-2.5 3.5zM99 328l-7 7h273q-3 -3 -6 -7
q-5 -4 -8 -6h-244q-2 1 -4.5 3t-3.5 3zM150 294q-3 1 -7 3.5t-7 3.5h185q-2 -1 -6.5 -3.5t-6.5 -3.5q-7 -3 -17 -7h-124q-14 5 -17 7z" />
    <glyph glyph-name="guillemotright" unicode="&#xbb;" horiz-adv-x="395" 
d="M168 493v7h2l7 -7l7 -7h-16v7zM168 459v7h36l7 -7l7 -7h-50v7zM168 424v7h71l7 -7l6 -6h-84v6zM168 390v7h105l7 -7l7 -7h-119v7zM261 219l-7 -8h-86v8v7h100zM227 184l-7 -6h-52v6v7h65zM192 150l-7 -7h-17v7v7h31zM42 500l7 -7l7 -7h-16v7v7h2zM83 459l7 -7h-50v7v7h37
zM118 424l7 -6h-85v6v7h71zM152 390l7 -7h-119v7v7h105zM179 363h128l7 -7l7 -7h-128h-25h-128v7v7h128h11zM214 328h127l7 -6l7 -7h-128h-59h-128v7v6h128h46zM208 294h128l-7 -7l-6 -7h-128h-27h-128v7v7h128h40zM174 259h128l-7 -6l-7 -7h-120v7v1l-1 -1l-7 -7h-120v7v6
h128h6zM133 219l-7 -8h-86v8v7h100zM99 184l-8 -6h-51v6v7h66zM64 150l-6 -7h-18v7v7h31z" />
    <glyph glyph-name="questiondown" unicode="&#xbf;" horiz-adv-x="458" 
d="M244 466h124h50v-565h-82q-120 0 -205 84t-85 205q0 95 55 170.5t143 105.5zM417 478h-377v7v7h377v-7v-7zM417 520v-7h-377v7v6h377v-6zM417 554v-7h-377v7v7h377v-7zM417 588v-7h-377v7v7h377v-7zM417 622v-6h-377v6v7h377v-7zM417 657v-7h-377v7v7h377v-7z" />
    <glyph glyph-name="Agrave" unicode="&#xc0;" 
d="M790 -92l3 -7h-376v-1h-377l377 753v-18h9l3 -7l4 -7h-16v-20h27l3 -7l3 -7h-33v-21h44l3 -7l3 -6h-50v-21h60l4 -7l3 -7h-67v-20h78l3 -7l4 -7h-85v-20h95l3 -7l4 -7h-102v-21h112l4 -7l3 -6h-119v-21h129l4 -7l3 -7h-136v-20h146l4 -8l3 -6h-153v-21h164l3 -6l4 -7
h-171v-21h181l3 -7l3 -7h-187v-21h198l3 -6l3 -7h-204v-20h215l4 -8l3 -7h-222v-20h232l3 -7l4 -7h-239v-20h249l4 -7l3 -7h-256v-21h267l3 -6l3 -7h-273v-21h283l4 -7l3 -7h-290v-20h301l3 -7l4 -7h-308v-20h318l3 -7l4 -7h-325v-21h335l3 -7l4 -6h-342v-21h352l4 -7l3 -7
h-359v-20h369zM237 833l7 -7h-16v7v7h2zM271 799l7 -7h-50v7v6h37zM306 764l7 -7h-85v7v7h70zM340 730l7 -7h-119v7v7h105zM374 696l7 -7h-153v7v7h139zM409 661l6 -6h-187v6v7h174z" />
    <glyph glyph-name="Aacute" unicode="&#xc1;" 
d="M790 -92l3 -7h-376v-1h-377l377 753v-18h9l3 -7l4 -7h-16v-20h27l3 -7l3 -7h-33v-21h44l3 -7l3 -6h-50v-21h60l4 -7l3 -7h-67v-20h78l3 -7l4 -7h-85v-20h95l3 -7l4 -7h-102v-21h112l4 -7l3 -6h-119v-21h129l4 -7l3 -7h-136v-20h146l4 -8l3 -6h-153v-21h164l3 -6l4 -7
h-171v-21h181l3 -7l3 -7h-187v-21h198l3 -6l3 -7h-204v-20h215l4 -8l3 -7h-222v-20h232l3 -7l4 -7h-239v-20h249l4 -7l3 -7h-256v-21h267l3 -6l3 -7h-273v-21h283l4 -7l3 -7h-290v-20h301l3 -7l4 -7h-308v-20h318l3 -7l4 -7h-325v-21h335l3 -7l4 -6h-342v-21h352l4 -7l3 -7
h-359v-20h369zM605 833v-7h-15l6 7l7 8h2v-8zM605 799v-7h-50l7 7l7 7h36v-7zM605 765v-7h-84l7 7l7 7h70v-7zM605 730v-6h-118l7 6l6 7h105v-7zM605 696v-7h-153l7 7l7 7h139v-7zM605 662v-7h-187l7 7l7 7h173v-7z" />
    <glyph glyph-name="Acircumflex" unicode="&#xc2;" 
d="M790 -92l3 -7h-376v-1h-377l377 753v-18h9l3 -7l4 -7h-16v-20h27l3 -7l3 -7h-33v-21h44l3 -7l3 -6h-50v-21h60l4 -7l3 -7h-67v-20h78l3 -7l4 -7h-85v-20h95l3 -7l4 -7h-102v-21h112l4 -7l3 -6h-119v-21h129l4 -7l3 -7h-136v-20h146l4 -8l3 -6h-153v-21h164l3 -6l4 -7
h-171v-21h181l3 -7l3 -7h-187v-21h198l3 -6l3 -7h-204v-20h215l4 -8l3 -7h-222v-20h232l3 -7l4 -7h-239v-20h249l4 -7l3 -7h-256v-21h267l3 -6l3 -7h-273v-21h283l4 -7l3 -7h-290v-20h301l3 -7l4 -7h-308v-20h318l3 -7l4 -7h-325v-21h335l3 -7l4 -6h-342v-21h352l4 -7l3 -7
h-359v-20h369zM432 826h-15h-16l7 7l7 7h2h2l6 -7zM467 792h-50h-50l7 7l7 6h36h35l8 -6zM501 757h-84h-84l7 7l6 8h71h70l7 -8zM535 723h-118h-119l7 7l7 7h105h104l7 -7zM569 689h-152h-153l7 7l7 7h139h139l7 -7zM604 655h-187h-188l8 6l7 7h173h173l7 -7z" />
    <glyph glyph-name="Adieresis" unicode="&#xc4;" 
d="M603 787q2 -1 5.5 -3.5t5.5 -3.5h-108q6 4 11.5 7t17.5 7h51q7 -2 17 -7zM640 753q2 -4 3 -7h-167q1 1 2 3.5t2 3.5t2.5 3t2.5 3h150q1 0 5 -6zM652 718q1 -2 1 -7h-186v7q1 1 1 3.5t1 3.5h182q0 -1 0.5 -3.5t0.5 -3.5zM652 684q-2 -4 -2 -7h-179q-1 1 -1.5 3.5t-0.5 3.5
q-2 4 -2 7h186q0 -1 -0.5 -3.5t-0.5 -3.5zM636 650q0 -1 -1.5 -3.5t-2.5 -3.5h-142q-4 4 -6 7q0 1 -5 7h162q-1 -1 -5 -7zM560 610q-15 0 -31 6q-12 5 -15 6h92q-6 -3 -15 -6q-15 -6 -31 -6zM315 787q2 -1 6 -3.5t4 -3.5h-108q6 4 11.5 7t17.5 7h51q8 -2 18 -7zM352 753
q2 -4 2 -7h-166q0 1 1.5 3.5t2 3.5t2.5 3t2 3h151q1 0 5 -6zM364 718q1 -2 1 -7h-187q0 5 1 7q0 1 0.5 3.5t0.5 3.5h183q0 -1 0.5 -3.5t0.5 -3.5zM363 684q-1 -4 -2 -7h-179q0 1 -1 3.5t-1 3.5q-1 4 -1 7h186q-1 -1 -1 -3.5t-1 -3.5zM348 650q-2 -3 -4 -7h-143q-4 4 -5 7
q-1 1 -5 7h162q-1 -1 -5 -7zM272 610q-15 0 -32 6q-12 5 -15 6h93q-7 -3 -15 -6q-15 -6 -31 -6zM790 -92l3 -7h-376v-1h-377l377 753v-18h9l3 -7l4 -7h-16v-20h27l3 -7l3 -7h-33v-21h44l3 -7l3 -6h-50v-21h60l4 -7l3 -7h-67v-20h78l3 -7l4 -7h-85v-20h95l3 -7l4 -7h-102v-21
h112l4 -7l3 -6h-119v-21h129l4 -7l3 -7h-136v-20h146l4 -8l3 -6h-153v-21h164l3 -6l4 -7h-171v-21h181l3 -7l3 -7h-187v-21h198l3 -6l3 -7h-204v-20h215l4 -8l3 -7h-222v-20h232l3 -7l4 -7h-239v-20h249l4 -7l3 -7h-256v-21h267l3 -6l3 -7h-273v-21h283l4 -7l3 -7h-290v-20
h301l3 -7l4 -7h-308v-20h318l3 -7l4 -7h-325v-21h335l3 -7l4 -6h-342v-21h352l4 -7l3 -7h-359v-20h369z" />
    <glyph glyph-name="Aring" unicode="&#xc5;" 
d="M460 830q9 -5 11 -6h-108q6 4 11 6.5t18 6.5h50q8 -2 18 -7zM496 796q3 -4 4 -7h-167q1 1 2 3.5t2 3.5t2.5 3.5t2.5 3.5h150q0 -1 4 -7zM509 762q0 -1 0.5 -3.5t0.5 -3.5h-187q0 1 0.5 3.5t0.5 3.5t0.5 3.5t0.5 3.5h183q0 -1 0.5 -3.5t0.5 -3.5zM509 728q-2 -6 -2 -7
h-180q0 1 -0.5 3.5t-1.5 3.5q-1 4 -1 6h186q0 -1 -0.5 -3t-0.5 -3zM346 686q-4 4 -5 7q-1 1 -5 7h162q0 -1 -4 -7l-3 -3t-3 -4h-142zM448 659q-15 -6 -31 -6t-31 6q-13 5 -15 7h92q-6 -4 -15 -7zM790 -92l3 -7h-376v-1h-377l377 753v-18h9l3 -7l4 -7h-16v-20h27l3 -7l3 -7
h-33v-21h44l3 -7l3 -6h-50v-21h60l4 -7l3 -7h-67v-20h78l3 -7l4 -7h-85v-20h95l3 -7l4 -7h-102v-21h112l4 -7l3 -6h-119v-21h129l4 -7l3 -7h-136v-20h146l4 -8l3 -6h-153v-21h164l3 -6l4 -7h-171v-21h181l3 -7l3 -7h-187v-21h198l3 -6l4 -7h-205v-20h215l4 -8l3 -7h-222v-20
h232l3 -7l4 -7h-239v-20h250l3 -7l3 -7h-256v-21h267l3 -6l3 -7h-273v-21h283l4 -7l3 -7h-290v-20h301l3 -7l4 -7h-308v-20h318l3 -7l4 -7h-325v-21h335l3 -7l4 -6h-342v-21h352l4 -7l3 -7h-359v-20h369z" />
    <glyph glyph-name="Ccedilla" unicode="&#xc7;" horiz-adv-x="456" 
d="M40 275q0 102 50.5 188.5t137 137t188.5 50.5v-376v-376q-102 0 -188.5 50t-137 137t-50.5 189zM228 -109v6h188l-7 -6l-7 -7h-174v7zM228 -144v7h154l-7 -7l-7 -7h-140v7zM228 -178v6h119l-7 -6l-6 -7h-106v7zM228 -212v7h85l-7 -7l-7 -8h-71v8zM228 -247v7h51l-8 -7
l-6 -6h-37v6zM228 -281v7h16l-6 -7l-7 -7h-3v7z" />
    <glyph glyph-name="Egrave" unicode="&#xc8;" horiz-adv-x="834" 
d="M417 653q102 0 189 -50t137.5 -137t50.5 -189h-377h-377q0 147 99.5 254.5t244.5 120.5q17 1 28 1h-184v7v7h174l7 -7l7 -7h1zM41 250.5v6.5h376v-6v-7h-375q-1 2 -1 6.5zM45.5 216q-0.5 1 -1 3.5t-0.5 3.5h373v-7v-7h-370q-1 1 -1 3.5t-0.5 3.5zM53 182q-1 2 -2 7h367
v-7v-7h-363q-1 1 -1.5 3.5t-0.5 3.5zM63 147q-1 3 -2 7h356v-7v-6h-351q-1 1 -2 3t-1 3zM77.5 114l-1.5 3t-2 3h343v-6v-7h-336q-1 1 -2 3.5t-1.5 3.5zM97 79q-3 3 -4 7h325v-7v-7h-317q0 1 -4 7zM120 45q-1 2 -5 6h302v-6v-7h-291q-1 1 -3 3.5t-3 3.5zM151 10q-3 4 -7 7
h273v-7v-7h-259q-3 2 -7 7zM191 -24q-5 3 -9 7h236v-7v-6h-218q-2 1 -5 3t-4 3zM245 -58q-2 1 -6.5 3.5t-5.5 3.5h185v-7v-7h-158q-10 4 -15 7zM343 -93q-18 4 -28 7h102v-7v-6h-18q-24 1 -56 6zM237 832l7 -7h-16v7v7h2zM272 797l6 -6h-50v6v7h37zM306 764l7 -8h-85v8v6h71
zM340 729l7 -7h-119v7v7h105zM374 695l7 -7h-153v7v6h140z" />
    <glyph glyph-name="Eacute" unicode="&#xc9;" 
d="M457 651q142 -15 239 -122.5t97 -252.5h-376h-377q0 103 50.5 189.5t137 137t189.5 50.5h2l6 6l7 7h172v-7v-6h-163q5 0 16 -2zM40 250.5v6.5h376v-6v-7h-375q-1 2 -1 6.5zM44.5 216q-0.5 1 -1 3.5t-0.5 3.5h373v-7v-7h-370q-1 1 -1 3.5t-0.5 3.5zM52 182q-1 2 -2 7h367
v-7v-7h-363q-1 1 -1.5 3.5t-0.5 3.5zM62 147q-1 3 -2 7h356v-7v-6h-351q-1 1 -2 3t-1 3zM76.5 114l-1.5 3t-2 3h343v-6v-7h-336q-1 1 -2 3.5t-1.5 3.5zM96 79q-3 3 -4 7h325v-7v-7h-317q0 1 -4 7zM119 45q-1 2 -5 6h302v-6v-7h-291q-1 1 -3 3.5t-3 3.5zM150 10q-3 4 -7 7
h273v-7v-7h-259q-3 2 -7 7zM190 -24q-5 3 -9 7h236v-7v-6h-218q-2 1 -5 3t-4 3zM244 -58q-2 1 -6.5 3.5t-5.5 3.5h185v-7v-7h-158q-10 4 -15 7zM342 -93q-18 4 -28 7h102v-7v-6h-18q-24 1 -56 6zM604 831v-7h-15l7 7l6 7h2v-7zM604 797v-7h-50l7 7l8 6h35v-6zM604 762v-7
h-83l6 7l7 8h70v-8zM604 728v-6h-118l7 6l7 7h104v-7zM604 694v-7h-152l7 7l6 7h139v-7z" />
    <glyph glyph-name="Ecircumflex" unicode="&#xca;" 
d="M449 652q145 -13 244.5 -120.5t99.5 -254.5h-376h-377q0 147 99 254.5t245 120.5q17 1 27 1h-182l7 7l7 7h173h174l6 -7l7 -7h-182q9 0 28 -1zM40 250.5v6.5h376v-6v-7h-375q-1 2 -1 6.5zM44.5 216q-0.5 1 -1 3.5t-0.5 3.5h373v-7v-7h-370q-1 1 -1 3.5t-0.5 3.5zM52 182
q-1 2 -2 7h367v-7v-7h-363q-1 1 -1.5 3.5t-0.5 3.5zM62 147q-1 3 -2 7h356v-7v-6h-351q-1 1 -2 3t-1 3zM76.5 114l-1.5 3t-2 3h343v-6v-7h-336q-1 1 -2 3.5t-1.5 3.5zM96 79q-3 3 -4 7h325v-7v-7h-317q0 1 -4 7zM119 45q-1 2 -5 6h302v-6v-7h-291q-1 1 -3 3.5t-3 3.5z
M150 10q-3 4 -7 7h273v-7v-7h-259q-3 2 -7 7zM190 -24q-5 3 -9 7h236v-7v-6h-218q-2 1 -5 3t-4 3zM244 -58q-2 1 -6.5 3.5t-5.5 3.5h185v-7v-7h-158q-10 4 -15 7zM342 -93q-18 4 -28 7h102v-7v-6h-18q-24 1 -56 6zM432 825h-16h-16l7 7l8 7h1h2l7 -7zM466 791h-50h-49l6 6
l7 7h36h36l7 -7zM500 756h-84h-84l7 8l7 6h70h70l7 -6zM534 722h-118h-118l6 7l7 7h105h105l6 -7zM569 688h-153h-153l7 7l7 6h139h139l7 -6z" />
    <glyph glyph-name="Edieresis" unicode="&#xcb;" horiz-adv-x="834" 
d="M417 653q102 0 189 -50t137.5 -137t50.5 -190h-377h-377q0 103 50.5 189.5t137.5 137t189 50.5zM41 250.5v6.5h376v-6v-7h-375q-1 2 -1 6.5zM45.5 216q-0.5 1 -1 3.5t-0.5 3.5h373v-7v-7h-370q-1 1 -1 3.5t-0.5 3.5zM53 182q-1 2 -2 7h367v-7v-7h-363q-1 1 -1.5 3.5
t-0.5 3.5zM63 147q-1 3 -2 7h356v-7v-6h-351q-1 1 -2 3t-1 3zM77.5 114l-1.5 3t-2 3h343v-6v-7h-336q-1 1 -2 3.5t-1.5 3.5zM97 79q-3 3 -4 7h325v-7v-7h-317q0 1 -4 7zM120 45q-1 2 -5 6h302v-6v-7h-291q-1 1 -3 3.5t-3 3.5zM151 10q-3 4 -7 7h273v-7v-7h-259q-3 2 -7 7z
M191 -24q-5 3 -9 7h236v-7v-6h-218q-2 1 -5 3t-4 3zM245 -58q-2 1 -6.5 3.5t-5.5 3.5h185v-7v-7h-158q-10 4 -15 7zM343 -93q-18 4 -28 7h102v-7v-6h-18q-24 1 -56 6zM604 831q3 -1 6.5 -3.5t4.5 -3.5h-108q6 4 11.5 7t17.5 7h51q7 -2 17 -7zM641 797q1 -2 3 -7h-167
q1 1 2 3.5t2 3.5t2.5 3t2.5 3h151zM653 762q1 -2 1 -7h-186v7q1 1 1 3.5t1 3.5h182q0 -1 0.5 -3.5t0.5 -3.5zM653 728q-2 -5 -2 -6h-179q-1 1 -1.5 3t-0.5 3q-2 4 -2 7h186q0 -1 -0.5 -3.5t-0.5 -3.5zM638 694q-2 -3 -5 -7h-142q-4 4 -6 7q0 1 -5 7h163q-1 -1 -5 -7z
M561 654q-15 0 -31 5q-12 6 -15 7h92q-6 -3 -15 -7q-15 -5 -31 -5zM316 831q5 -3 10 -7h-108q6 4 11.5 7t17.5 7h51q7 -2 18 -7zM353 797q2 -4 3 -7h-167q1 1 2.5 3.5t2 3.5t2 3t2.5 3h150q1 0 5 -6zM366 762v-3v-4h-186v7q1 1 1.5 3.5t0.5 3.5h182q1 -1 1 -3.5t1 -3.5z
M364 728v-3v-3h-180q0 1 -1 3t-1 3q-2 4 -2 7h186q-1 -1 -1 -3.5t-1 -3.5zM349 694q-2 -3 -4 -7h-143q-4 4 -5 7q-1 1 -5 7h162q-1 -1 -5 -7zM273 654q-16 0 -32 5q-12 6 -15 7h93q-7 -3 -15 -7q-15 -5 -31 -5z" />
    <glyph glyph-name="Igrave" unicode="&#xcc;" horiz-adv-x="457" 
d="M227 653h190v-753h-377v752v1v7v8h174l6 -8zM49 832l7 -7h-16v7v7h2zM83 797l7 -6h-50v6v8h36zM117 764l7 -7h-84v7v6h70zM151 729l7 -7h-118v7v7h105zM186 695l7 -7h-153v7v6h139z" />
    <glyph glyph-name="Iacute" unicode="&#xcd;" horiz-adv-x="457" 
d="M415 839h2v-7v-7h-16l7 7zM374 797l7 7h36v-7v-6h-50zM339 763l8 7h70v-7v-7h-84zM306 729l6 7h105v-7v-7h-118zM271 695l7 6h139v-6v-7h-153zM237 660l6 7h174v-7v-7v-1v-752h-377v753h190z" />
    <glyph glyph-name="Icircumflex" unicode="&#xce;" horiz-adv-x="456" 
d="M415 653h1v-1v-752h-376v752v1h1l7 7l7 8h172h174l7 -8zM243 825h-16h-14l6 7l7 7h1h3l6 -7zM277 791h-50h-49l7 6l7 8h35h37l7 -8zM312 757h-85h-83l6 7l7 6h70h71l7 -6zM346 722h-119h-118l7 7l7 7h104h105l7 -7zM380 688h-153h-152l7 7l7 6h138h140l6 -6z" />
    <glyph glyph-name="Idieresis" unicode="&#xcf;" horiz-adv-x="538" 
d="M78 -100v753h377v-753h-377zM447 830q8 -4 11 -6h-108q6 4 11.5 6.5t17.5 6.5h51q7 -1 17 -7zM484 796q3 -4 4 -7h-167q1 1 2 3.5t2 3.5t2.5 3.5t2.5 3.5h150q0 -1 4 -7zM497 762q0 -1 0.5 -3.5t0.5 -3.5h-186v7q1 1 1 3.5t1 3.5h182q0 -1 0.5 -3.5t0.5 -3.5zM313 728
q0 1 -0.5 3t-0.5 3h186q0 -1 -0.5 -3t-1 -3t-1 -3.5t-0.5 -3.5h-180q0 1 -1 3.5t-1 3.5zM328 693q0 1 -4 7h163q-1 -1 -5 -7l-3 -3t-3 -4h-142q-4 5 -6 7zM374 659q-9 3 -15 7h92q-6 -4 -15 -7q-15 -6 -31 -6t-31 6zM176 830q7 -3 11 -6h-108q6 4 11.5 6.5t17.5 6.5h51
q7 -1 17 -7zM213 796q3 -4 3 -7h-167q1 1 2.5 3.5t2 3.5t2 3.5t2.5 3.5h150q1 -1 5 -7zM224 769q2 -5 2 -7v-3.5v-3.5h-186q0 5 1 7q0 1 0.5 3.5t0.5 3.5h182zM42 728q0 1 -0.5 3t-0.5 3h186q0 -1 -0.5 -3t-1 -3t-1 -3.5t-0.5 -3.5h-180q0 1 -1 3.5t-1 3.5zM57 693
q-1 1 -2.5 3.5t-1.5 3.5h162q-1 -1 -5 -7q-1 -1 -2.5 -3.5t-2.5 -3.5h-143q-4 5 -5 7zM102 659q-12 5 -15 7h92q-6 -4 -15 -7q-15 -6 -31 -6t-31 6z" />
    <glyph glyph-name="Ntilde" unicode="&#xd1;" horiz-adv-x="834" 
d="M42 651l752 -1l-1 -9v-5v-6h-1v-21h1v-6v-7h-1v-20h1v-7v-7h-1v-20h1v-7v-7h-1v-20h1v-7v-6h-1v-21h1v-6v-7h-1v-20h1v-7v-7h-1v-20h1v-7v-7h-1v-20h1v-7v-7h-1v-20h1v-7v-6h-1v-21h1v-6v-7h-1v-20h1v-7v-7h-362l21 -20h341v-7v-7h-327l21 -20h306v-7v-6h-293l21 -21h272
v-6v-7h-258l20 -21h238v-6v-7h-224l21 -20h203v-7v-7h-190l21 -20h169v-7v-7h-155l21 -20h134v-7v-6h-121l21 -21h100v-6v-7h-86l21 -20h65v-7v-7h-52l21 -20h31v-7v-7h-17l17 -17h-2l-751 -2v1v749v2zM770 276q-50 3 -102 21h-271l21 -21h352zM634 311q-21 10 -38 20h-233
l21 -20h250zM575 345q-12 9 -26 21h-221l21 -21h226zM533 380q-10 9 -20 20h-219l21 -20h218zM501 414q-10 13 -15 20h-226l20 -20h221zM476 448q-1 2 -4 7q-6 9 -8 13h-239l21 -20h230zM457 482q-2 4 -5.5 10.5t-4.5 10.5h-256l21 -21h245zM441 517q-1 3 -3 10q-3 7 -4 10
h-278l21 -20h264zM430 551q-2 10 -6 20h-302l21 -20h287zM422 585l-4 20h-331l21 -20h314zM418 620q-1 2 -1 6q-1 10 -1 14h-363l21 -20h344z" />
    <glyph glyph-name="Ograve" unicode="&#xd2;" horiz-adv-x="835" 
d="M417 656q103 0 190 -50.5t137.5 -137.5t50.5 -190q0 -102 -50.5 -189t-137.5 -137.5t-189.5 -50.5t-189.5 50.5t-137.5 137.5t-50.5 189q0 148 99 255.5t244 121.5q16 1 25 1h-179v7v7h173l7 -7l7 -7h1zM238 834l6 -7h-15v7v7h2zM272 800l7 -7h-50v7v7h36zM306 766l7 -7
h-84v7v6h70zM340 731l8 -7h-119v7v7h105zM375 697l6 -7h-152v7v6h139z" />
    <glyph glyph-name="Oacute" unicode="&#xd3;" horiz-adv-x="835" 
d="M451 654q145 -13 244 -121t100 -255q0 -103 -50.5 -190t-137.5 -137.5t-189.5 -50.5t-189.5 50.5t-137.5 137.5t-50.5 189.5t50.5 189.5t137.5 137.5t189 50.5h2l6 7l7 7h173v-7v-7h-179q9 0 25 -1zM605 834v-7h-15l6 7l7 7h2v-7zM605 800v-7h-50l7 7l7 7h36v-7zM605 766
v-7h-84l7 7l7 6h70v-6zM605 731v-7h-118l7 7l6 7h105v-7zM605 697v-7h-153l7 7l7 6h139v-6z" />
    <glyph glyph-name="Ocircumflex" unicode="&#xd4;" horiz-adv-x="835" 
d="M451 654q145 -13 244 -121t100 -255q0 -103 -50.5 -190t-137.5 -137.5t-189.5 -50.5t-189.5 50.5t-137.5 137.5t-50.5 190q0 147 99 255t244 121q16 1 25 1h-178l7 7l7 7h173h173l7 -7l7 -7h-178q9 0 25 -1zM432 827h-15h-16l7 7l7 7h2h2l6 -7zM467 793h-50h-50l7 7l7 7
h36h35l8 -7zM501 759h-84h-84l7 7l6 6h71h70l7 -6zM535 724h-118h-119l7 7l7 7h105h104l7 -7zM569 690h-152h-153l7 7l7 6h139h139l7 -6z" />
    <glyph glyph-name="Odieresis" unicode="&#xd6;" horiz-adv-x="834" 
d="M40 278.5q0 102.5 50.5 189.5t137.5 137.5t189.5 50.5t189.5 -50.5t137.5 -137.5t50.5 -189.5t-50.5 -189.5t-137.5 -137.5t-189.5 -50.5t-189.5 50.5t-137.5 137.5t-50.5 189.5zM272 832q6 -3 11 -6h-108q6 4 11.5 6.5t17.5 6.5h50q8 -1 18 -7zM309 799l3 -7h-167
q1 1 2 3.5t2 3.5t2.5 3t2.5 3h150zM321 764q1 -2 1 -7h-186v7q1 1 1 3.5t1 3.5h182q0 -1 0.5 -3.5t0.5 -3.5zM321 730q-2 -4 -2 -7h-179q-1 1 -1.5 3.5t-0.5 3.5q-2 4 -2 6h186q0 -1 -0.5 -3t-0.5 -3zM306 695q-4 -4 -5 -6h-142q-5 4 -6 6q-1 1 -5 7h163q-1 -1 -5 -7z
M229 656q-15 0 -31 5q-12 6 -15 7h92q-6 -3 -15 -7q-15 -5 -31 -5zM636 832q8 -4 11 -6h-108q6 4 11.5 6.5t17.5 6.5h51q7 -1 17 -7zM673 799l4 -7h-167q1 1 2 3.5t2 3.5t2.5 3t2.5 3h150zM686 764q0 -1 0.5 -3.5t0.5 -3.5h-187q0 5 1 7q0 1 0.5 3.5t0.5 3.5h183
q0 -1 0.5 -3.5t0.5 -3.5zM685 730q0 -1 -0.5 -3.5t-0.5 -3.5h-180q0 1 -0.5 3.5t-1.5 3.5q-1 4 -1 6h185q0 -1 -0.5 -3t-0.5 -3zM670 695l-2 -2.5t-3 -3.5h-142l-6 6q0 1 -4 7h162q-1 -1 -5 -7zM594 656q-16 0 -32 5q-12 6 -15 7h93q-6 -3 -15 -7q-15 -5 -31 -5z" />
    <glyph glyph-name="multiply" unicode="&#xd7;" horiz-adv-x="763" 
d="M593 628l7 -6h-62l7 6l6 7h36zM628 595l6 -8h-131l8 8l7 6h103zM662 560l7 -7h-199l6 7l7 7h172zM701 521l2 -2h-268l7 7l7 6h240l7 -6zM676 491l-6 -7h-269l6 7l7 7h269zM99 182l7 8h268l-6 -8l-7 -6h-269zM65 149l7 6h268l-7 -6l-7 -8h-268zM47 114l-7 7h266l-7 -7
l-7 -7h-238zM81 80l-7 6h198l-7 -6l-7 -7h-170zM116 45l-7 7h128l-7 -7l-6 -6h-102zM150 11l-7 7h60l-7 -7l-7 -7h-32zM518 332l205 -205l-131 -132l-3 -2l-71 71l-135 135l-11 11h-246l7 7l7 7h218l-13 13l-8 8h-176l7 6l6 7h150l-21 20h-108l7 8l7 7h80l-20 20h-40l7 7
l7 7h12l-6 5l-190 191l134 134l190 -190l4 -3h262l-7 -7l-7 -7h-235l21 -20h194l-8 -7l-6 -7h-167l21 -21h125l-6 -6l-8 -7h-97l20 -21h57l-7 -7l-7 -7h-29z" />
    <glyph glyph-name="Oslash" unicode="&#xd8;" horiz-adv-x="837" 
d="M77 113q-38 78 -37 165q0 102 50.5 189t137.5 137.5t189 50.5q87 0 165 -37h35l7 -7l7 -7h-63l-21 -25h105l7 -7l7 -6h-133l-20 -21h174l7 -7l6 -7h-202l-21 -21h244l7 -7l5 -4l3 -3h-272l-21 -21h272l-7 -7l-7 -7h-272l-21 -20h272l-7 -7l-6 -7h-273l-21 -21h272l-7 -7
l-7 -6h-272l-21 -21h273l-7 -7l-7 -7h-272l-21 -21h271l-6 -7l-7 -6h-272l-21 -21h272l-7 -7l-7 -7h-272l-21 -21h272l-7 -7l-7 -6h-272l-21 -21h272l-6 -7l-7 -7h-272l-21 -21h271l-7 -6l-6 -7h-273l-21 -21h273l-7 -7l-7 -7h-272l-21 -21h272l-7 -6l-7 -7h-272zM728 492
q65 -94 69 -212q0 -102 -50.5 -189t-137.5 -137.5t-190 -50.5q-118 0 -214 66l18 18l35 35l34 34l35 35l34 34l35 34l34 35l35 34l23 23l12 13l34 34l35 35l35 35l36 35l25 25l9 10l34 34zM325 89l-6 -7h-242l-7 7l-7 7h269zM291 54l-8 -7h-172l-7 7l-6 7h200zM256 20l-7 -7
h-103l-6 7l-8 6h131zM221 -16l-7 -6h-33l-7 6l-7 8h61z" />
    <glyph glyph-name="Ugrave" unicode="&#xd9;" 
d="M416 277v-25h376v-3.5v-3.5t-0.5 -3t-0.5 -3h-375v-21h373q0 -1 -0.5 -3.5t-1 -3.5t-0.5 -3t-1 -3h-370v-21h366q0 -2 -1 -6q0 -1 -1 -3.5t-1 -3.5h-363v-20h356q0 -1 -1 -3.5t-1 -3.5t-1 -3.5t-2 -3.5h-351v-20h343q-1 -1 -2 -3.5t-2 -3.5q-1 -3 -3 -7h-335v-20h324
q-1 -1 -2 -3.5t-2 -3.5q-1 0 -5 -6h-316v-21h302q-1 -1 -2.5 -3t-2.5 -3t-3 -3.5t-3 -3.5h-291v-20h273l-7 -7l-3.5 -3.5l-3.5 -3.5h-259v-20h236q-2 -1 -5 -3.5t-4 -3.5q-2 -1 -5 -3.5t-4 -3.5h-218v-20h185q-2 -1 -6.5 -3.5t-6.5 -3.5l-7 -3.5l-7 -3.5h-158v-20h103
q-10 -3 -29 -7q-32 -5 -56 -6h-17v-1q-103 0 -189.5 50.5t-137 137.5t-50.5 189v377h188v7v7h172l7 -7l7 -7h2v-2v-375zM416 634h377v-6v-7h-377v7v6zM416 593v8h377v-8v-7h-377v7zM416 559v7h377v-7v-7h-377v7zM416 525v7h377v-7v-7h-377v7zM416 491v6h377v-6v-7h-377v7z
M416 456v8h377v-8v-7h-377v7zM416 422v7h377v-7v-7h-377v7zM416 388v7h377v-7v-7h-377v7zM416 353v7h377v-7v-6h-377v6zM416 319v7h377v-7v-7h-377v7zM416 285v7h377v-7v-7h-377v7zM236 832l7 -7h-15v7v7h1zM271 797l6 -6h-49v6v7h36zM305 763l7 -7h-84v7v7h70zM340 729
l6 -7h-118v7v7h104zM373 695l7 -7h-152v7v6h139z" />
    <glyph glyph-name="Uacute" unicode="&#xda;" 
d="M417 634v-10h376v-7v-7h-376v-20h376v-7v-7h-376v-20h376v-7v-6h-376v-21h376v-6v-7h-376v-20h376v-7v-7h-376v-20h376v-7v-7h-376v-20h376v-7v-7h-376v-20h376v-7v-6h-376v-21h376v-6v-7h-376v-20h376v-7v-7h-376v-20h376v-7v-7h-376v-1v-20h376q0 -1 -0.5 -3t-0.5 -3
v-3.5v-3.5h-375v-20h373q-1 -1 -1 -3.5t-0.5 -3.5t-1 -3.5t-0.5 -3.5h-370v-20h366q0 -3 -1 -7q-1 -1 -1.5 -3.5t-1.5 -3.5h-362v-20h356q-1 -1 -1.5 -3.5t-1 -3.5l-1.5 -3t-1 -4h-351v-20h343q-1 -1 -2 -3.5t-1 -3.5l-4 -6h-336v-21h325q-1 -1 -2.5 -3t-1.5 -3q-1 -1 -5 -7
h-316v-20h302q-1 -1 -3 -3.5t-3 -3.5t-2.5 -3.5t-2.5 -3.5h-291v-20h273q-2 -1 -3 -2t-2 -2.5t-2 -2.5l-3.5 -3.5t-4.5 -3.5h-258v-20h235q-1 -1 -4 -3.5t-4 -3.5q-2 -1 -5 -3t-5 -3h-217v-21h185q-2 -1 -6.5 -3t-6.5 -3t-7 -4q-5 -2 -7 -3h-158v-20h102q-10 -3 -29 -7
q-32 -6 -56 -7h-17v-1q-102 0 -189 50.5t-137.5 137.5t-50.5 189v377h377v-19zM605 833v-7h-15l6 7l7 8h2v-8zM605 799v-7h-50l7 7l7 7h36v-7zM605 765v-7h-84l7 7l7 7h70v-7zM605 730v-6h-118l7 6l6 7h105v-7zM605 696v-7h-153l7 7l7 7h139v-7zM605 662v-7h-187l7 7l7 7
h173v-7z" />
    <glyph glyph-name="Ucircumflex" unicode="&#xdb;" 
d="M416 634h377v-6v-7h-377v7v6zM416 593v8h377v-8v-7h-377v7zM416 559v7h377v-7v-7h-377v7zM416 525v7h377v-7v-7h-377v7zM416 491v6h377v-6v-7h-377v7zM416 456v8h377v-8v-7h-377v7zM416 422v7h377v-7v-7h-377v7zM416 388v7h377v-7v-7h-377v7zM416 353v7h377v-7v-6h-377v6
zM416 319v7h377v-7v-7h-377v7zM416 285v7h377v-7v-7h-377v7zM416 277v-25h376v-3.5v-3.5t-0.5 -3t-0.5 -3h-375v-21h373q0 -1 -0.5 -3.5t-1 -3.5t-0.5 -3t-1 -3h-370v-21h366q0 -2 -1 -6q0 -1 -1 -3.5t-1 -3.5h-363v-20h356q0 -1 -1 -3.5t-1 -3.5t-1 -3.5t-2 -3.5h-351v-20
h343q0 -1 -1 -3.5t-2 -3.5q-1 -3 -4 -7h-335v-20h324q-1 -1 -2 -3.5t-2 -3.5q-1 0 -5 -6h-316v-21h302q-1 -1 -2.5 -3t-2.5 -3t-3 -3.5t-3 -3.5h-291v-20h273l-2.5 -2.5t-2.5 -3t-2 -1.5l-3.5 -3.5l-3.5 -3.5h-259v-20h236q-2 -1 -5 -3.5t-4 -3.5q-2 -1 -5 -3.5t-4 -3.5
h-218v-20h185q-2 -1 -6.5 -3.5t-6.5 -3.5l-7 -3.5l-7 -3.5h-158v-20h103q-10 -3 -29 -7q-32 -5 -56 -6h-17v-1q-103 0 -189.5 50.5t-137 137t-50.5 188.5v377h189l7 7l7 7h173v-7v-7v7v7h174l6 -7l7 -7h-187v-1v-375zM416 832v-7h-16l7 7l8 7h1v-7zM416 797v-6h-49l6 6l7 7
h36v-7zM416 763v-7h-84l7 7l7 7h70v-7zM416 729v-7h-118l6 7l7 7h105v-7zM416 695v-7h-153l7 7l7 6h139v-6zM425 832l7 -7h-16v7v7h2zM459 797l7 -6h-50v6v7h36zM493 763l7 -7h-84v7v7h70zM527 729l7 -7h-118v7v7h105zM562 695l7 -7h-153v7v6h139z" />
    <glyph glyph-name="Udieresis" unicode="&#xdc;" 
d="M416 634v-10h377v-7v-7h-377v-20h377v-7v-7h-377v-20h377v-7v-6h-377v-21h377v-6v-7h-377v-20h377v-7v-7h-377v-20h377v-7v-7h-377v-20h377v-7v-7h-377v-20h377v-7v-6h-377v-21h377v-6v-7h-377v-20h377v-7v-7h-377v-20h377v-7v-7h-377v-1v-20h376v-3v-3t-0.5 -3.5
t-0.5 -3.5h-375v-20h373q0 -1 -0.5 -3.5t-1 -3.5t-0.5 -3.5t-1 -3.5h-370v-20h366q0 -3 -1 -7q0 -1 -1 -3.5t-1 -3.5h-363v-20h356q0 -1 -1 -3.5t-1 -3.5t-1 -3l-2 -4h-351v-20h343q0 -1 -1 -3.5t-2 -3.5q-1 -3 -4 -6h-335v-21h324q-1 -1 -2 -3t-2 -3t-5 -7h-316v-20h302
q-1 -1 -2.5 -3.5t-2.5 -3.5t-3 -3.5t-3 -3.5h-291v-20h273q-1 -1 -2.5 -2t-2.5 -2.5t-2 -2.5l-3.5 -3.5l-3.5 -3.5h-259v-20h236q-2 -1 -5 -3.5t-4 -3.5q-2 -1 -5 -3t-4 -3h-218v-21h185q-2 -1 -6.5 -3t-6.5 -3l-7 -3.5l-7 -3.5h-158v-20h103q-10 -3 -29 -7q-32 -6 -56 -7
h-17v-1q-103 0 -189.5 50.5t-137 137.5t-50.5 189v377h224q-14 2 -24 5q-12 5 -15 7h93q-7 -4 -15 -7q-14 -4 -24 -5h137v-19zM603 830q3 -1 6.5 -3.5t4.5 -2.5h-108q6 4 11.5 6.5t17.5 6.5h51q7 -1 17 -7zM640 796q2 -3 3 -7h-167q1 1 2 3.5t2 3.5t2.5 3.5t2.5 3.5h151
q0 -1 4 -7zM652 761q1 -2 1 -6h-186v6q1 1 1 3.5t1 3.5h182q0 -1 0.5 -3.5t0.5 -3.5zM652 727q-2 -4 -2 -7h-179q-1 1 -1.5 3.5t-0.5 3.5q-2 4 -2 7h186q0 -1 -0.5 -3.5t-0.5 -3.5zM637 693q-3 -3 -5 -7h-142q-4 4 -6 7l-5 6h163q-1 0 -5 -6zM552 653q-9 1 -23 5
q-12 5 -15 7h92q-6 -4 -15 -7q-15 -4 -24 -5h-7h-3.5h-4.5zM315 830q5 -2 10 -6h-108q6 4 11.5 6.5t17.5 6.5h51q7 -1 18 -7zM352 796q0 -1 1 -3q2 -3 2 -4h-167q1 1 2.5 3.5t2 3.5t2 3.5t2.5 3.5h150q1 -1 5 -7zM365 761v-3v-3h-186v6q1 1 1 3.5t1 3.5h182q1 -1 1 -3.5
t1 -3.5zM363 727v-3.5v-3.5h-180q0 1 -1 3.5t-1 3.5q-2 4 -2 7h186q-1 -1 -1 -3.5t-1 -3.5zM201 686l-3 3t-2 4q-1 0 -5 6h163q-1 0 -5 -6q-1 -1 -2.5 -3.5t-2.5 -3.5h-143z" />
    <glyph glyph-name="Yacute" unicode="&#xdd;" 
d="M415 247v7h377v-7v-6h-377v6zM415 213v7h377v-7v-7h-377v7zM415 179v7h377v-7v-7h-377v7zM415 145v6h377v-6v-7h-377v7zM415 110v7h377v-7v-7h-377v7zM415 76v7h377v-7v-7h-377v7zM415 42v7h377v-7v-7h-377v7zM415 7v7h377v-7v-6h-377v6zM415 -27v7h377v-7v-7h-377v7z
M415 -61v7h377v-7v-7h-377v7zM415 -95v6h377v-6v-8h-377v8zM602 831v-7h-16l7 7l7 7h2v-7zM602 797v-7h-50l7 7l7 6h36v-6zM602 762v-7h-84l7 7l7 7h70v-7zM602 728v-7h-118l6 7l7 7h105v-7zM602 694v-7h-153l7 7l7 7h139v-7zM793 653l-1 -2l-20 -19h20v-7v-7h-33l-21 -21
h54v-6v-7h-68l-20 -21h88v-7v-7h-102l-21 -21h123v-6v-7h-136l-21 -20h157v-7v-8h-171l-21 -20h192v-7v-6h-205l-20 -21h225v-7v-7h-240l-20 -21h260v-7v-6h-273l-21 -21h294v-6v-8h-308l-21 -20h329v-7v-7h-342l-21 -20h363v-7v-7h-375v-1l-2 1v1l-375 375h375h2v0v2h-2
l6 6l8 7h173v-7v-6h191z" />
    <glyph glyph-name="agrave" unicode="&#xe0;" 
d="M790 -92l3 -7h-376v-1h-377l377 753v-18h9l3 -7l4 -7h-16v-20h27l3 -7l3 -7h-33v-21h44l3 -7l3 -6h-50v-21h60l4 -7l3 -7h-67v-20h78l3 -7l4 -7h-85v-20h95l3 -7l4 -7h-102v-21h112l4 -7l3 -6h-119v-21h129l4 -7l3 -7h-136v-20h146l4 -8l3 -6h-153v-21h164l3 -6l4 -7
h-171v-21h181l3 -7l3 -7h-187v-21h198l3 -6l3 -7h-204v-20h215l4 -8l3 -7h-222v-20h232l3 -7l4 -7h-239v-20h249l4 -7l3 -7h-256v-21h267l3 -6l3 -7h-273v-21h283l4 -7l3 -7h-290v-20h301l3 -7l4 -7h-308v-20h318l3 -7l4 -7h-325v-21h335l3 -7l4 -6h-342v-21h352l4 -7l3 -7
h-359v-20h369zM237 833l7 -7h-16v7v7h2zM271 799l7 -7h-50v7v6h37zM306 764l7 -7h-85v7v7h70zM340 730l7 -7h-119v7v7h105zM374 696l7 -7h-153v7v7h139zM409 661l6 -6h-187v6v7h174z" />
    <glyph glyph-name="aacute" unicode="&#xe1;" 
d="M790 -92l3 -7h-376v-1h-377l377 753v-18h9l3 -7l4 -7h-16v-20h27l3 -7l3 -7h-33v-21h44l3 -7l3 -6h-50v-21h60l4 -7l3 -7h-67v-20h78l3 -7l4 -7h-85v-20h95l3 -7l4 -7h-102v-21h112l4 -7l3 -6h-119v-21h129l4 -7l3 -7h-136v-20h146l4 -8l3 -6h-153v-21h164l3 -6l4 -7
h-171v-21h181l3 -7l3 -7h-187v-21h198l3 -6l3 -7h-204v-20h215l4 -8l3 -7h-222v-20h232l3 -7l4 -7h-239v-20h249l4 -7l3 -7h-256v-21h267l3 -6l3 -7h-273v-21h283l4 -7l3 -7h-290v-20h301l3 -7l4 -7h-308v-20h318l3 -7l4 -7h-325v-21h335l3 -7l4 -6h-342v-21h352l4 -7l3 -7
h-359v-20h369zM605 833v-7h-15l6 7l7 8h2v-8zM605 799v-7h-50l7 7l7 7h36v-7zM605 765v-7h-84l7 7l7 7h70v-7zM605 730v-6h-118l7 6l6 7h105v-7zM605 696v-7h-153l7 7l7 7h139v-7zM605 662v-7h-187l7 7l7 7h173v-7z" />
    <glyph glyph-name="acircumflex" unicode="&#xe2;" 
d="M790 -92l3 -7h-376v-1h-377l377 753v-18h9l3 -7l4 -7h-16v-20h27l3 -7l3 -7h-33v-21h44l3 -7l3 -6h-50v-21h60l4 -7l3 -7h-67v-20h78l3 -7l4 -7h-85v-20h95l3 -7l4 -7h-102v-21h112l4 -7l3 -6h-119v-21h129l4 -7l3 -7h-136v-20h146l4 -8l3 -6h-153v-21h164l3 -6l4 -7
h-171v-21h181l3 -7l3 -7h-187v-21h198l3 -6l3 -7h-204v-20h215l4 -8l3 -7h-222v-20h232l3 -7l4 -7h-239v-20h249l4 -7l3 -7h-256v-21h267l3 -6l3 -7h-273v-21h283l4 -7l3 -7h-290v-20h301l3 -7l4 -7h-308v-20h318l3 -7l4 -7h-325v-21h335l3 -7l4 -6h-342v-21h352l4 -7l3 -7
h-359v-20h369zM432 826h-15h-16l7 7l7 7h2h2l6 -7zM467 792h-50h-50l7 7l7 6h36h35l8 -6zM501 757h-84h-84l7 7l6 8h71h70l7 -8zM535 723h-118h-119l7 7l7 7h105h104l7 -7zM569 689h-152h-153l7 7l7 7h139h139l7 -7zM604 655h-187h-188l8 6l7 7h173h173l7 -7z" />
    <glyph glyph-name="adieresis" unicode="&#xe4;" 
d="M603 787q2 -1 5.5 -3.5t5.5 -3.5h-108q6 4 11.5 7t17.5 7h51q7 -2 17 -7zM640 753q2 -4 3 -7h-167q1 1 2 3.5t2 3.5t2.5 3t2.5 3h150q1 0 5 -6zM652 718q1 -2 1 -7h-186v7q1 1 1 3.5t1 3.5h182q0 -1 0.5 -3.5t0.5 -3.5zM652 684q-2 -4 -2 -7h-179q-1 1 -1.5 3.5t-0.5 3.5
q-2 4 -2 7h186q0 -1 -0.5 -3.5t-0.5 -3.5zM636 650q0 -1 -1.5 -3.5t-2.5 -3.5h-142q-4 4 -6 7q0 1 -5 7h162q-1 -1 -5 -7zM560 610q-15 0 -31 6q-12 5 -15 6h92q-6 -3 -15 -6q-15 -6 -31 -6zM315 787q2 -1 6 -3.5t4 -3.5h-108q6 4 11.5 7t17.5 7h51q8 -2 18 -7zM352 753
q2 -4 2 -7h-166q0 1 1.5 3.5t2 3.5t2.5 3t2 3h151q1 0 5 -6zM364 718q1 -2 1 -7h-187q0 5 1 7q0 1 0.5 3.5t0.5 3.5h183q0 -1 0.5 -3.5t0.5 -3.5zM363 684q-1 -4 -2 -7h-179q0 1 -1 3.5t-1 3.5q-1 4 -1 7h186q-1 -1 -1 -3.5t-1 -3.5zM348 650q-2 -3 -4 -7h-143q-4 4 -5 7
q-1 1 -5 7h162q-1 -1 -5 -7zM272 610q-15 0 -32 6q-12 5 -15 6h93q-7 -3 -15 -6q-15 -6 -31 -6zM790 -92l3 -7h-376v-1h-377l377 753v-18h9l3 -7l4 -7h-16v-20h27l3 -7l3 -7h-33v-21h44l3 -7l3 -6h-50v-21h60l4 -7l3 -7h-67v-20h78l3 -7l4 -7h-85v-20h95l3 -7l4 -7h-102v-21
h112l4 -7l3 -6h-119v-21h129l4 -7l3 -7h-136v-20h146l4 -8l3 -6h-153v-21h164l3 -6l4 -7h-171v-21h181l3 -7l3 -7h-187v-21h198l3 -6l3 -7h-204v-20h215l4 -8l3 -7h-222v-20h232l3 -7l4 -7h-239v-20h249l4 -7l3 -7h-256v-21h267l3 -6l3 -7h-273v-21h283l4 -7l3 -7h-290v-20
h301l3 -7l4 -7h-308v-20h318l3 -7l4 -7h-325v-21h335l3 -7l4 -6h-342v-21h352l4 -7l3 -7h-359v-20h369z" />
    <glyph glyph-name="aring" unicode="&#xe5;" 
d="M460 830q9 -5 11 -6h-108q6 4 11 6.5t18 6.5h50q8 -2 18 -7zM496 796q3 -4 4 -7h-167q1 1 2 3.5t2 3.5t2.5 3.5t2.5 3.5h150q0 -1 4 -7zM509 762q0 -1 0.5 -3.5t0.5 -3.5h-187q0 1 0.5 3.5t0.5 3.5t0.5 3.5t0.5 3.5h183q0 -1 0.5 -3.5t0.5 -3.5zM509 728q-2 -6 -2 -7
h-180q0 1 -0.5 3.5t-1.5 3.5q-1 4 -1 6h186q0 -1 -0.5 -3t-0.5 -3zM346 686q-4 4 -5 7q-1 1 -5 7h162q0 -1 -4 -7l-3 -3t-3 -4h-142zM448 659q-15 -6 -31 -6t-31 6q-13 5 -15 7h92q-6 -4 -15 -7zM790 -92l3 -7h-376v-1h-377l377 753v-18h9l3 -7l4 -7h-16v-20h27l3 -7l3 -7
h-33v-21h44l3 -7l3 -6h-50v-21h60l4 -7l3 -7h-67v-20h78l3 -7l4 -7h-85v-20h95l3 -7l4 -7h-102v-21h112l4 -7l3 -6h-119v-21h129l4 -7l3 -7h-136v-20h146l4 -8l3 -6h-153v-21h164l3 -6l4 -7h-171v-21h181l3 -7l3 -7h-187v-21h198l3 -6l4 -7h-205v-20h215l4 -8l3 -7h-222v-20
h232l3 -7l4 -7h-239v-20h250l3 -7l3 -7h-256v-21h267l3 -6l3 -7h-273v-21h283l4 -7l3 -7h-290v-20h301l3 -7l4 -7h-308v-20h318l3 -7l4 -7h-325v-21h335l3 -7l4 -6h-342v-21h352l4 -7l3 -7h-359v-20h369z" />
    <glyph glyph-name="ccedilla" unicode="&#xe7;" horiz-adv-x="456" 
d="M40 275q0 102 50.5 188.5t137 137t188.5 50.5v-376v-376v0q-102 0 -188.5 50t-137 137t-50.5 189zM228 -109v6h188l-7 -6l-7 -7h-174v7zM228 -144v7h154l-7 -7l-7 -7h-140v7zM228 -178v6h119l-7 -6l-6 -7h-106v7zM228 -212v7h85l-7 -7l-7 -8h-71v8zM228 -247v7h51l-8 -7
l-6 -6h-37v6zM228 -281v7h16l-6 -7l-7 -7h-3v7z" />
    <glyph glyph-name="egrave" unicode="&#xe8;" horiz-adv-x="834" 
d="M417 653q102 0 189 -50t137.5 -137t50.5 -189h-377h-377q0 147 99.5 254.5t244.5 120.5q17 1 28 1h-184v7v7h174l7 -7l7 -7h1zM41 250.5v6.5h376v-6v-7h-375q-1 2 -1 6.5zM45.5 216q-0.5 1 -1 3.5t-0.5 3.5h373v-7v-7h-370q-1 1 -1 3.5t-0.5 3.5zM53 182q-1 2 -2 7h367
v-7v-7h-363q-1 1 -1.5 3.5t-0.5 3.5zM63 147q-1 3 -2 7h356v-7v-6h-351q-1 1 -2 3t-1 3zM77.5 114l-1.5 3t-2 3h343v-6v-7h-336q-1 1 -2 3.5t-1.5 3.5zM97 79q-3 3 -4 7h325v-7v-7h-317q0 1 -4 7zM120 45q-1 2 -5 6h302v-6v-7h-291q-1 1 -3 3.5t-3 3.5zM151 10q-3 4 -7 7
h273v-7v-7h-259q-3 2 -7 7zM191 -24q-5 3 -9 7h236v-7v-6h-218q-2 1 -5 3t-4 3zM245 -58q-2 1 -6.5 3.5t-5.5 3.5h185v-7v-7h-158q-10 4 -15 7zM343 -93q-18 4 -28 7h102v-7v-6h-18q-24 1 -56 6zM237 832l7 -7h-16v7v7h2zM272 797l6 -6h-50v6v7h37zM306 764l7 -8h-85v8v6h71
zM340 729l7 -7h-119v7v7h105zM374 695l7 -7h-153v7v6h140z" />
    <glyph glyph-name="eacute" unicode="&#xe9;" 
d="M457 651q142 -15 239 -122.5t97 -252.5h-376h-377q0 103 50.5 189.5t137 137t189.5 50.5h2l6 6l7 7h172v-7v-6h-163q5 0 16 -2zM40 250.5v6.5h376v-6v-7h-375q-1 2 -1 6.5zM44.5 216q-0.5 1 -1 3.5t-0.5 3.5h373v-7v-7h-370q-1 1 -1 3.5t-0.5 3.5zM52 182q-1 2 -2 7h367
v-7v-7h-363q-1 1 -1.5 3.5t-0.5 3.5zM62 147q-1 3 -2 7h356v-7v-6h-351q-1 1 -2 3t-1 3zM76.5 114l-1.5 3t-2 3h343v-6v-7h-336q-1 1 -2 3.5t-1.5 3.5zM96 79q-3 3 -4 7h325v-7v-7h-317q0 1 -4 7zM119 45q-1 2 -5 6h302v-6v-7h-291q-1 1 -3 3.5t-3 3.5zM150 10q-3 4 -7 7
h273v-7v-7h-259q-3 2 -7 7zM190 -24q-5 3 -9 7h236v-7v-6h-218q-2 1 -5 3t-4 3zM244 -58q-2 1 -6.5 3.5t-5.5 3.5h185v-7v-7h-158q-10 4 -15 7zM342 -93q-18 4 -28 7h102v-7v-6h-18q-24 1 -56 6zM604 831v-7h-15l7 7l6 7h2v-7zM604 797v-7h-50l7 7l8 6h35v-6zM604 762v-7
h-83l6 7l7 8h70v-8zM604 728v-6h-118l7 6l7 7h104v-7zM604 694v-7h-152l7 7l6 7h139v-7z" />
    <glyph glyph-name="ecircumflex" unicode="&#xea;" 
d="M449 652q145 -13 244.5 -120.5t99.5 -254.5h-376h-377q0 147 99 254.5t245 120.5q17 1 27 1h-182l7 7l7 7h173h174l6 -7l7 -7h-182q9 0 28 -1zM40 250.5v6.5h376v-6v-7h-375q-1 2 -1 6.5zM44.5 216q-0.5 1 -1 3.5t-0.5 3.5h373v-7v-7h-370q-1 1 -1 3.5t-0.5 3.5zM52 182
q-1 2 -2 7h367v-7v-7h-363q-1 1 -1.5 3.5t-0.5 3.5zM62 147q-1 3 -2 7h356v-7v-6h-351q-1 1 -2 3t-1 3zM76.5 114l-1.5 3t-2 3h343v-6v-7h-336q-1 1 -2 3.5t-1.5 3.5zM96 79q-3 3 -4 7h325v-7v-7h-317q0 1 -4 7zM119 45q-1 2 -5 6h302v-6v-7h-291q-1 1 -3 3.5t-3 3.5z
M150 10q-3 4 -7 7h273v-7v-7h-259q-3 2 -7 7zM190 -24q-5 3 -9 7h236v-7v-6h-218q-2 1 -5 3t-4 3zM244 -58q-2 1 -6.5 3.5t-5.5 3.5h185v-7v-7h-158q-10 4 -15 7zM342 -93q-18 4 -28 7h102v-7v-6h-18q-24 1 -56 6zM432 825h-16h-16l7 7l8 7h1h2l7 -7zM466 791h-50h-49l6 6
l7 7h36h36l7 -7zM500 756h-84h-84l7 8l7 6h70h70l7 -6zM534 722h-118h-118l6 7l7 7h105h105l6 -7zM569 688h-153h-153l7 7l7 6h139h139l7 -6z" />
    <glyph glyph-name="edieresis" unicode="&#xeb;" horiz-adv-x="834" 
d="M417 653q102 0 189 -50t137.5 -137t50.5 -190h-377h-377q0 103 50.5 189.5t137.5 137t189 50.5zM41 250.5v6.5h376v-6v-7h-375q-1 2 -1 6.5zM45.5 216q-0.5 1 -1 3.5t-0.5 3.5h373v-7v-7h-370q-1 1 -1 3.5t-0.5 3.5zM53 182q-1 2 -2 7h367v-7v-7h-363q-1 1 -1.5 3.5
t-0.5 3.5zM63 147q-1 3 -2 7h356v-7v-6h-351q-1 1 -2 3t-1 3zM77.5 114l-1.5 3t-2 3h343v-6v-7h-336q-1 1 -2 3.5t-1.5 3.5zM97 79q-3 3 -4 7h325v-7v-7h-317q0 1 -4 7zM120 45q-1 2 -5 6h302v-6v-7h-291q-1 1 -3 3.5t-3 3.5zM151 10q-3 4 -7 7h273v-7v-7h-259q-3 2 -7 7z
M191 -24q-5 3 -9 7h236v-7v-6h-218q-2 1 -5 3t-4 3zM245 -58q-2 1 -6.5 3.5t-5.5 3.5h185v-7v-7h-158q-10 4 -15 7zM343 -93q-18 4 -28 7h102v-7v-6h-18q-24 1 -56 6zM604 831q3 -1 6.5 -3.5t4.5 -3.5h-108q6 4 11.5 7t17.5 7h51q7 -2 17 -7zM641 797q1 -2 3 -7h-167
q1 1 2 3.5t2 3.5t2.5 3t2.5 3h151zM653 762q1 -2 1 -7h-186v7q1 1 1 3.5t1 3.5h182q0 -1 0.5 -3.5t0.5 -3.5zM653 728q-2 -5 -2 -6h-179q-1 1 -1.5 3t-0.5 3q-2 4 -2 7h186q0 -1 -0.5 -3.5t-0.5 -3.5zM638 694q-2 -3 -5 -7h-142q-4 4 -6 7q0 1 -5 7h163q-1 -1 -5 -7z
M561 654q-15 0 -31 5q-12 6 -15 7h92q-6 -3 -15 -7q-15 -5 -31 -5zM316 831q5 -3 10 -7h-108q6 4 11.5 7t17.5 7h51q7 -2 18 -7zM353 797q2 -4 3 -7h-167q1 1 2.5 3.5t2 3.5t2 3t2.5 3h150q1 0 5 -6zM366 762v-3v-4h-186v7q1 1 1.5 3.5t0.5 3.5h182q1 -1 1 -3.5t1 -3.5z
M364 728v-3v-3h-180q0 1 -1 3t-1 3q-2 4 -2 7h186q-1 -1 -1 -3.5t-1 -3.5zM349 694q-2 -3 -4 -7h-143q-4 4 -5 7q-1 1 -5 7h162q-1 -1 -5 -7zM273 654q-16 0 -32 5q-12 6 -15 7h93q-7 -3 -15 -7q-15 -5 -31 -5z" />
    <glyph glyph-name="igrave" unicode="&#xec;" horiz-adv-x="457" 
d="M227 653h190v-753h-377v752v1v7v8h174l6 -8zM49 832l7 -7h-16v7v7h2zM83 797l7 -6h-50v6v8h36zM117 764l7 -7h-84v7v6h70zM151 729l7 -7h-118v7v7h105zM186 695l7 -7h-153v7v6h139z" />
    <glyph glyph-name="iacute" unicode="&#xed;" horiz-adv-x="457" 
d="M415 839h2v-7v-7h-16l7 7zM374 797l7 7h36v-7v-6h-50zM339 763l8 7h70v-7v-7h-84zM306 729l6 7h105v-7v-7h-118zM271 695l7 6h139v-6v-7h-153zM237 660l6 7h174v-7v-7v-1v-752h-377v753h190z" />
    <glyph glyph-name="icircumflex" unicode="&#xee;" horiz-adv-x="456" 
d="M415 653h1v-1v-752h-376v752v1h1l7 7l7 8h172h174l7 -8zM243 825h-16h-14l6 7l7 7h1h3l6 -7zM277 791h-50h-49l7 6l7 8h35h37l7 -8zM312 757h-85h-83l6 7l7 6h70h71l7 -6zM346 722h-119h-118l7 7l7 7h104h105l7 -7zM380 688h-153h-152l7 7l7 6h138h140l6 -6z" />
    <glyph glyph-name="idieresis" unicode="&#xef;" horiz-adv-x="538" 
d="M78 -100v753h377v-753h-377zM447 830q8 -4 11 -6h-108q6 4 11.5 6.5t17.5 6.5h51q7 -1 17 -7zM484 796q3 -4 4 -7h-167q1 1 2 3.5t2 3.5t2.5 3.5t2.5 3.5h150q0 -1 4 -7zM497 762q0 -1 0.5 -3.5t0.5 -3.5h-186v7q1 1 1 3.5t1 3.5h182q0 -1 0.5 -3.5t0.5 -3.5zM313 728
q0 1 -0.5 3t-0.5 3h186q0 -1 -0.5 -3t-1 -3t-1 -3.5t-0.5 -3.5h-180q0 1 -1 3.5t-1 3.5zM328 693q0 1 -4 7h163q-1 -1 -5 -7l-3 -3t-3 -4h-142q-4 5 -6 7zM374 659q-9 3 -15 7h92q-6 -4 -15 -7q-15 -6 -31 -6t-31 6zM176 830q7 -3 11 -6h-108q6 4 11.5 6.5t17.5 6.5h51
q7 -1 17 -7zM213 796q3 -4 3 -7h-167q1 1 2.5 3.5t2 3.5t2 3.5t2.5 3.5h150q1 -1 5 -7zM224 769q2 -5 2 -7v-3.5v-3.5h-186q0 5 1 7q0 1 0.5 3.5t0.5 3.5h182zM42 728q0 1 -0.5 3t-0.5 3h186q0 -1 -0.5 -3t-1 -3t-1 -3.5t-0.5 -3.5h-180q0 1 -1 3.5t-1 3.5zM57 693
q-1 1 -2.5 3.5t-1.5 3.5h162q-1 -1 -5 -7q-1 -1 -2.5 -3.5t-2.5 -3.5h-143q-4 5 -5 7zM102 659q-12 5 -15 7h92q-6 -4 -15 -7q-15 -6 -31 -6t-31 6z" />
    <glyph glyph-name="ntilde" unicode="&#xf1;" 
d="M42 651h751l-1 -10v-5v-6v-21v-6v-7v-20v-7v-7v-20v-7v-7v-20v-7v-6v-21v-6v-7v-20v-7v-7v-20v-7v-7v-20v-7v-7v-20v-7v-6v-21v-6v-7v-20v-7v-7h-361l21 -20h340v-7v-7h-327l21 -20h306v-7v-6h-292l21 -21h271v-6v-7h-258l21 -21h237v-6v-7h-223l21 -20h202v-7v-7h-189
l21 -20h169v-7v-7h-155l21 -20h134v-7v-6h-121l21 -21h100v-6v-7h-86l20 -20h66v-7v-7h-52l21 -20h31v-7v-7h-18l18 -17h-2l-751 -2v1v749v2zM769 276q-49 3 -102 21h-270l21 -21h351zM634 311q-22 10 -38 20h-233l21 -20h250zM575 345q-12 9 -27 21h-220l21 -21h226z
M533 380q-10 9 -20 20h-219l21 -20h218zM501 414q-11 13 -15 20h-227l21 -20h221zM476 448q-1 2 -4 7q-6 9 -8 13h-239l21 -20h230zM457 482q-2 4 -5.5 10.5t-5.5 10.5h-256l21 -21h246zM441 517q-1 3 -4 10q-2 7 -3 10h-278l21 -20h264zM429 551q-2 10 -5 20h-303l21 -20
h287zM422 585l-4 20h-331l21 -20h314zM417 620v6q-1 10 -2 14h-363l21 -20h344z" />
    <glyph glyph-name="ograve" unicode="&#xf2;" horiz-adv-x="834" 
d="M418 656q102 0 189 -50.5t137.5 -137.5t50.5 -190q0 -102 -50.5 -189t-137.5 -137.5t-189.5 -50.5t-189.5 50.5t-137.5 137.5t-50.5 189q0 148 99 255.5t244 121.5q16 1 25 1h-179v7v7h174l7 -7l6 -7h2zM238 834l7 -7h-16v7v7h2zM272 800l7 -7h-50v7v7h37zM307 766l7 -7
h-85v7v6h70zM341 731l7 -7h-119v7v7h105zM375 697l7 -7h-153v7v6h139z" />
    <glyph glyph-name="oacute" unicode="&#xf3;" horiz-adv-x="835" 
d="M451 654q145 -13 244 -121t100 -255q0 -103 -50.5 -190t-137.5 -137.5t-189.5 -50.5t-189.5 50.5t-137.5 137.5t-50.5 189.5t50.5 189.5t137.5 137.5t189 50.5h2l6 7l7 7h173v-7v-7h-179q9 0 25 -1zM605 834v-7h-15l6 7l7 7h2v-7zM605 800v-7h-50l7 7l7 7h36v-7zM605 766
v-7h-84l7 7l7 6h70v-6zM605 731v-7h-118l7 7l6 7h105v-7zM605 697v-7h-153l7 7l7 6h139v-6z" />
    <glyph glyph-name="ocircumflex" unicode="&#xf4;" horiz-adv-x="835" 
d="M451 654q145 -13 244 -121t100 -255q0 -103 -50.5 -190t-137.5 -137.5t-189.5 -50.5t-189.5 50.5t-137.5 137.5t-50.5 190q0 147 99 255t244 121q16 1 25 1h-178l7 7l7 7h173h173l7 -7l7 -7h-178q9 0 25 -1zM432 827h-15h-16l7 7l7 7h2h2l6 -7zM467 793h-50h-50l7 7l7 7
h36h35l8 -7zM501 759h-84h-84l7 7l6 6h71h70l7 -6zM535 724h-118h-119l7 7l7 7h105h104l7 -7zM569 690h-152h-153l7 7l7 6h139h139l7 -6z" />
    <glyph glyph-name="odieresis" unicode="&#xf6;" horiz-adv-x="835" 
d="M40 278.5q0 102.5 50.5 189.5t137.5 137.5t189.5 50.5t189.5 -50.5t137.5 -137.5t50.5 -189.5t-50.5 -189.5t-137.5 -137.5t-189.5 -50.5t-189.5 50.5t-137.5 137.5t-50.5 189.5zM272 832q6 -3 11 -6h-108q6 4 11.5 6.5t17.5 6.5h50q8 -1 18 -7zM309 799l3 -7h-167
q1 1 2 3.5t2 3.5t2.5 3t2.5 3h150zM321 764q1 -2 1 -7h-186v7q1 1 1 3.5t1 3.5h182q0 -1 0.5 -3.5t0.5 -3.5zM321 730q-2 -4 -2 -7h-179q-1 1 -1.5 3.5t-0.5 3.5q-2 4 -2 6h186q0 -1 -0.5 -3t-0.5 -3zM306 695q-4 -4 -5 -6h-142q-5 4 -6 6q-1 1 -5 7h163q-1 -1 -5 -7z
M229 656q-15 0 -31 5q-12 6 -15 7h92q-6 -3 -15 -7q-15 -5 -31 -5zM636 832q8 -4 11 -6h-108q6 4 11.5 6.5t17.5 6.5h51q8 -2 17 -7zM673 799l4 -7h-167q1 1 2 3.5t2 3.5t2.5 3t2.5 3h150zM686 764q0 -1 0.5 -3.5t0.5 -3.5h-187q0 5 1 7q0 1 0.5 3.5t0.5 3.5h183
q0 -1 0.5 -3.5t0.5 -3.5zM685 730q0 -1 -0.5 -3.5t-0.5 -3.5h-180q0 1 -0.5 3.5t-1.5 3.5q-1 4 -1 6h185q0 -1 -0.5 -3t-0.5 -3zM670 695l-2 -2.5t-3 -3.5h-142l-6 6q0 1 -4 7h162q-1 -1 -5 -7zM594 656q-16 0 -32 5q-12 6 -15 7h93q-6 -3 -15 -7q-15 -5 -31 -5z" />
    <glyph glyph-name="divide" unicode="&#xf7;" horiz-adv-x="645" 
d="M364 629q9 -4 12 -7h-107q4 3 12 7q12 5 18 7h47q6 -2 18 -7zM402 595l2 -2q1 -3 2 -4h-167q0 1 1.5 3t2.5 3t2.5 3.5t2.5 3.5h150q0 -1 4 -7zM415 561q0 -1 0.5 -3.5t0.5 -3.5h-187q0 5 1 7q0 1 0.5 3.5t0.5 3.5h183q0 -1 0.5 -3.5t0.5 -3.5zM414 526q-1 -4 -1 -6h-180
q0 1 -0.5 3t-1.5 3q-1 4 -1 7h186q-1 -1 -1 -3.5t-1 -3.5zM400 492q-1 -1 -3 -3.5t-3 -3.5h-143q-4 4 -5 7q-1 1 -2.5 3.5t-2.5 3.5h163q-1 -1 -2.5 -3.5t-1.5 -3.5zM323 452q-18 0 -32 6q-9 3 -15 7h94q-6 -4 -15 -7q-15 -6 -32 -6zM346 174q12 -4 18 -7q9 -4 12 -7h-107
q4 3 12 7q12 5 18 7h47zM243 132q1 1 5 7h149q1 0 5 -7q0 -1 1.5 -3t2.5 -3h-167q0 1 1.5 3t2.5 3zM414 105q0 -1 0.5 -3.5t0.5 -3.5t0.5 -3.5t0.5 -3.5h-186q0 5 1 7q0 1 0.5 3.5t0.5 3.5h182zM231 64q0 1 -0.5 3t-0.5 3h186q-1 -1 -1 -3t-0.5 -3.5t-1 -3.5t-1.5 -3h-179
q-1 1 -1.5 3t-0.5 4zM246 30q-3 3 -4 6h162q0 -1 -1.5 -3t-2.5 -3t-2.5 -3.5t-2.5 -3.5h-143q-4 4 -6 7zM290 -5q-9 4 -14 7h94q-6 -3 -15 -7q-15 -6 -32 -6q-15 1 -33 6zM301 408h304v-190h-565v186v4h76h185z" />
    <glyph glyph-name="oslash" unicode="&#xf8;" horiz-adv-x="837" 
d="M77 113q-38 78 -37 165q0 102 50.5 189t137.5 137.5t189 50.5q87 0 165 -37h35l7 -7l7 -7h-63l-21 -25h105l7 -7l7 -6h-133l-20 -21h174l7 -7l6 -7h-202l-21 -21h244l7 -7l5 -4l3 -3h-272l-21 -21h272l-7 -7l-7 -7h-272l-21 -20h272l-7 -7l-6 -7h-273l-21 -21h272l-7 -7
l-7 -6h-272l-21 -21h273l-7 -7l-7 -7h-272l-21 -21h271l-6 -7l-7 -6h-272l-21 -21h272l-7 -7l-7 -7h-272l-21 -21h272l-7 -7l-7 -6h-272l-21 -21h272l-6 -7l-7 -7h-272l-21 -21h271l-7 -6l-6 -7h-273l-21 -21h273l-7 -7l-7 -7h-272l-21 -21h272l-7 -6l-7 -7h-272zM728 492
q65 -94 69 -212q0 -102 -50.5 -189t-137.5 -137.5t-190 -50.5q-118 0 -214 66l18 18l35 35l34 34l35 35l34 34l35 34l34 35l35 34l23 23l12 13l34 34l35 35l35 35l36 35l25 25l9 10l34 34zM325 89l-6 -7h-242l-7 7l-7 7h269zM291 54l-8 -7h-172l-7 7l-6 7h200zM256 20l-7 -7
h-103l-6 7l-8 6h131zM221 -16l-7 -6h-33l-7 6l-7 8h61z" />
    <glyph glyph-name="ugrave" unicode="&#xf9;" 
d="M416 277v-25h376v-3.5v-3.5t-0.5 -3t-0.5 -3h-375v-21h373q0 -1 -0.5 -3.5t-1 -3.5t-0.5 -3t-1 -3h-370v-21h366q0 -2 -1 -6q0 -1 -1 -3.5t-1 -3.5h-363v-20h356q0 -1 -1 -3.5t-1 -3.5t-1 -3.5t-2 -3.5h-351v-20h343q-1 -1 -2 -3.5t-2 -3.5q-1 -3 -3 -7h-335v-20h324
q-1 -1 -2 -3.5t-2 -3.5q-1 0 -5 -6h-316v-21h302q-1 -1 -2.5 -3t-2.5 -3t-3 -3.5t-3 -3.5h-291v-20h273l-7 -7l-3.5 -3.5l-3.5 -3.5h-259v-20h236q-2 -1 -5 -3.5t-4 -3.5q-2 -1 -5 -3.5t-4 -3.5h-218v-20h185q-2 -1 -6.5 -3.5t-6.5 -3.5l-7 -3.5l-7 -3.5h-158v-20h103
q-10 -3 -29 -7q-32 -5 -56 -6h-17v-1q-103 0 -189.5 50.5t-137 137.5t-50.5 189v377h188v7v7h172l7 -7l7 -7h2v-2v-375zM416 634h377v-6v-7h-377v7v6zM416 593v8h377v-8v-7h-377v7zM416 559v7h377v-7v-7h-377v7zM416 525v7h377v-7v-7h-377v7zM416 491v6h377v-6v-7h-377v7z
M416 456v8h377v-8v-7h-377v7zM416 422v7h377v-7v-7h-377v7zM416 388v7h377v-7v-7h-377v7zM416 353v7h377v-7v-6h-377v6zM416 319v7h377v-7v-7h-377v7zM416 285v7h377v-7v-7h-377v7zM236 832l7 -7h-15v7v7h1zM271 797l6 -6h-49v6v7h36zM305 763l7 -7h-84v7v7h70zM340 729
l6 -7h-118v7v7h104zM373 695l7 -7h-152v7v6h139z" />
    <glyph glyph-name="uacute" unicode="&#xfa;" 
d="M417 634v-10h376v-7v-7h-376v-20h376v-7v-7h-376v-20h376v-7v-6h-376v-21h376v-6v-7h-376v-20h376v-7v-7h-376v-20h376v-7v-7h-376v-20h376v-7v-7h-376v-20h376v-7v-6h-376v-21h376v-6v-7h-376v-20h376v-7v-7h-376v-20h376v-7v-7h-376v-1v-20h376q0 -1 -0.5 -3t-0.5 -3
v-3.5v-3.5h-375v-20h373q-1 -1 -1 -3.5t-0.5 -3.5t-1 -3.5t-0.5 -3.5h-370v-20h366q0 -3 -1 -7q-1 -1 -1.5 -3.5t-1.5 -3.5h-362v-20h356q-1 -1 -1.5 -3.5t-1 -3.5l-1.5 -3t-1 -4h-351v-20h343q-1 -1 -2 -3.5t-1 -3.5l-4 -6h-336v-21h325q-1 -1 -2.5 -3t-1.5 -3q-1 -1 -5 -7
h-316v-20h302q-1 -1 -3 -3.5t-3 -3.5t-2.5 -3.5t-2.5 -3.5h-291v-20h273q-2 -1 -3 -2t-2 -2.5t-2 -2.5l-3.5 -3.5t-4.5 -3.5h-258v-20h235q-1 -1 -4 -3.5t-4 -3.5q-2 -1 -5 -3t-5 -3h-217v-21h185q-2 -1 -6.5 -3t-6.5 -3t-7 -4q-5 -2 -7 -3h-158v-20h102q-10 -3 -29 -7
q-32 -6 -56 -7h-17v-1q-102 0 -189 50.5t-137.5 137.5t-50.5 189v377h377v-19zM605 833v-7h-15l6 7l7 8h2v-8zM605 799v-7h-50l7 7l7 7h36v-7zM605 765v-7h-84l7 7l7 7h70v-7zM605 730v-6h-118l7 6l6 7h105v-7zM605 696v-7h-153l7 7l7 7h139v-7zM605 662v-7h-187l7 7l7 7
h173v-7z" />
    <glyph glyph-name="ucircumflex" unicode="&#xfb;" 
d="M416 634h377v-6v-7h-377v7v6zM416 593v8h377v-8v-7h-377v7zM416 559v7h377v-7v-7h-377v7zM416 525v7h377v-7v-7h-377v7zM416 491v6h377v-6v-7h-377v7zM416 456v8h377v-8v-7h-377v7zM416 422v7h377v-7v-7h-377v7zM416 388v7h377v-7v-7h-377v7zM416 353v7h377v-7v-6h-377v6
zM416 319v7h377v-7v-7h-377v7zM416 285v7h377v-7v-7h-377v7zM416 277v-25h376v-3.5v-3.5t-0.5 -3t-0.5 -3h-375v-21h373q0 -1 -0.5 -3.5t-1 -3.5t-0.5 -3t-1 -3h-370v-21h366q0 -2 -1 -6q0 -1 -1 -3.5t-1 -3.5h-363v-20h356q0 -1 -1 -3.5t-1 -3.5t-1 -3.5t-2 -3.5h-351v-20
h343q0 -1 -1 -3.5t-2 -3.5q-1 -3 -4 -7h-335v-20h324q-1 -1 -2 -3.5t-2 -3.5q-1 0 -5 -6h-316v-21h302q-1 -1 -2.5 -3t-2.5 -3t-3 -3.5t-3 -3.5h-291v-20h273l-2.5 -2.5t-2.5 -3t-2 -1.5l-3.5 -3.5l-3.5 -3.5h-259v-20h236q-2 -1 -5 -3.5t-4 -3.5q-2 -1 -5 -3.5t-4 -3.5
h-218v-20h185q-2 -1 -6.5 -3.5t-6.5 -3.5l-7 -3.5l-7 -3.5h-158v-20h103q-10 -3 -29 -7q-32 -5 -56 -6h-17v-1q-103 0 -189.5 50.5t-137 137t-50.5 188.5v377h189l7 7l7 7h173v-7v-7v7v7h174l6 -7l7 -7h-187v-1v-375zM416 832v-7h-16l7 7l8 7h1v-7zM416 797v-6h-49l6 6l7 7
h36v-7zM416 763v-7h-84l7 7l7 7h70v-7zM416 729v-7h-118l6 7l7 7h105v-7zM416 695v-7h-153l7 7l7 6h139v-6zM425 832l7 -7h-16v7v7h2zM459 797l7 -6h-50v6v7h36zM493 763l7 -7h-84v7v7h70zM527 729l7 -7h-118v7v7h105zM562 695l7 -7h-153v7v6h139z" />
    <glyph glyph-name="udieresis" unicode="&#xfc;" 
d="M416 634v-10h377v-7v-7h-377v-20h377v-7v-7h-377v-20h377v-7v-6h-377v-21h377v-6v-7h-377v-20h377v-7v-7h-377v-20h377v-7v-7h-377v-20h377v-7v-7h-377v-20h377v-7v-6h-377v-21h377v-6v-7h-377v-20h377v-7v-7h-377v-20h377v-7v-7h-377v-1v-20h376v-3v-3t-0.5 -3.5
t-0.5 -3.5h-375v-20h373q0 -1 -0.5 -3.5t-1 -3.5t-0.5 -3.5t-1 -3.5h-370v-20h366q0 -3 -1 -7q0 -1 -1 -3.5t-1 -3.5h-363v-20h356q0 -1 -1 -3.5t-1 -3.5t-1 -3l-2 -4h-351v-20h343q0 -1 -1 -3.5t-2 -3.5q-1 -3 -4 -6h-335v-21h324q-1 -1 -2 -3t-2 -3t-5 -7h-316v-20h302
q-1 -1 -2.5 -3.5t-2.5 -3.5t-3 -3.5t-3 -3.5h-291v-20h273q-1 -1 -2.5 -2t-2.5 -2.5t-2 -2.5l-3.5 -3.5l-3.5 -3.5h-259v-20h236q-2 -1 -5 -3.5t-4 -3.5q-2 -1 -5 -3t-4 -3h-218v-21h185q-2 -1 -6.5 -3t-6.5 -3l-7 -3.5l-7 -3.5h-158v-20h103q-10 -3 -29 -7q-32 -6 -56 -7
h-17v-1q-103 0 -189.5 50.5t-137 137.5t-50.5 189v377h224q-14 2 -24 5q-12 5 -15 7h93q-7 -4 -15 -7q-14 -4 -24 -5h137v-19zM603 830q3 -1 6.5 -3.5t4.5 -2.5h-108q6 4 11.5 6.5t17.5 6.5h51q7 -1 17 -7zM640 796q2 -3 3 -7h-167q1 1 2 3.5t2 3.5t2.5 3.5t2.5 3.5h151
q0 -1 4 -7zM652 761q1 -2 1 -6h-186v6q1 1 1 3.5t1 3.5h182q0 -1 0.5 -3.5t0.5 -3.5zM652 727q-2 -4 -2 -7h-179q-1 1 -1.5 3.5t-0.5 3.5q-2 4 -2 7h186q0 -1 -0.5 -3.5t-0.5 -3.5zM637 693q-3 -3 -5 -7h-142q-4 4 -6 7l-5 6h163q-1 0 -5 -6zM552 653q-9 1 -23 5
q-12 5 -15 7h92q-6 -4 -15 -7q-15 -4 -24 -5h-7h-3.5h-4.5zM315 830q5 -2 10 -6h-108q6 4 11.5 6.5t17.5 6.5h51q7 -1 18 -7zM352 796q0 -1 1 -3q2 -3 2 -4h-167q1 1 2.5 3.5t2 3.5t2 3.5t2.5 3.5h150q1 -1 5 -7zM365 761v-3v-3h-186v6q1 1 1 3.5t1 3.5h182q1 -1 1 -3.5
t1 -3.5zM363 727v-3.5v-3.5h-180q0 1 -1 3.5t-1 3.5q-2 4 -2 7h186q-1 -1 -1 -3.5t-1 -3.5zM201 686l-3 3t-2 4q-1 0 -5 6h163q-1 0 -5 -6q-1 -1 -2.5 -3.5t-2.5 -3.5h-143z" />
    <glyph glyph-name="yacute" unicode="&#xfd;" 
d="M415 247v7h377v-7v-6h-377v6zM415 213v7h377v-7v-7h-377v7zM415 179v7h377v-7v-7h-377v7zM415 145v6h377v-6v-7h-377v7zM415 110v7h377v-7v-7h-377v7zM415 76v7h377v-7v-7h-377v7zM415 42v7h377v-7v-7h-377v7zM415 7v7h377v-7v-6h-377v6zM415 -27v7h377v-7v-7h-377v7z
M415 -61v7h377v-7v-7h-377v7zM415 -95v6h377v-6v-8h-377v8zM602 831v-7h-16l7 7l7 7h2v-7zM602 797v-7h-50l7 7l7 6h36v-6zM602 762v-7h-84l7 7l7 7h70v-7zM602 728v-7h-118l6 7l7 7h105v-7zM602 694v-7h-153l7 7l7 7h139v-7zM793 653l-1 -2l-20 -19h20v-7v-7h-33l-21 -21
h54v-6v-7h-68l-20 -21h88v-7v-7h-102l-21 -21h123v-6v-7h-136l-21 -20h157v-7v-8h-171l-21 -20h192v-7v-6h-205l-20 -21h225v-7v-7h-240l-20 -21h260v-7v-6h-273l-21 -21h294v-6v-8h-308l-21 -20h329v-7v-7h-342l-21 -20h363v-7v-7h-375v-1l-2 1v1l-375 375h375h2v0v2h-2
l6 6l8 7h173v-7v-6h191z" />
    <glyph glyph-name="ydieresis" unicode="&#xff;" horiz-adv-x="834" 
d="M415 250v7h377v-7v-7h-377v7zM415 216v7h377v-7v-7h-377v7zM415 182v7h377v-7v-7h-377v7zM415 147v7h377v-7v-6h-377v6zM415 113v7h377v-7v-7h-377v7zM415 79v7h377v-7v-7h-377v7zM415 45v6h377v-6v-7h-377v7zM415 10v7h377v-7v-7h-377v7zM415 -24v6h377v-6v-7h-377v7z
M415 -58v7h377v-7v-8h-377v8zM415 -93v7h377v-7v-6h-377v6zM616 830q5 -2 10 -6h-108q6 4 11.5 6.5t17.5 6.5h51q7 -1 18 -7zM653 796q2 -3 3 -7h-167q1 1 2.5 3.5t2 3.5t2 3.5t2.5 3.5h150q1 -1 5 -7zM666 761v-3v-3h-186v6q1 2 1 4t1 3h182q1 -1 1 -3.5t1 -3.5zM664 727
v-3v-4h-180q0 1 -1 3.5t-1 3.5q-2 4 -2 7h186q-1 -1 -1 -3.5t-1 -3.5zM502 686l-3 3t-2 4q-1 0 -5 6h163q-1 0 -5 -6q-1 -1 -2.5 -3.5t-2.5 -3.5h-143zM328 830q1 -1 5 -3l6 -3h-109q7 4 12 6.5t18 6.5h50q8 -1 18 -7zM364 796q3 -3 4 -7h-167q0 1 1.5 3.5t2 3.5t2.5 3.5
t3 3.5h150q0 -1 4 -7zM377 761q1 -2 1 -6h-187q0 4 1 6q0 1 0.5 3.5t0.5 3.5h183q0 -1 0.5 -3.5t0.5 -3.5zM376 727q-1 -4 -1 -7h-180q0 1 -0.5 3.5t-1.5 3.5q-1 4 -1 7h186q-1 -1 -1 -3.5t-1 -3.5zM214 686q-2 3 -5 7q-1 0 -5 6h162l-4 -6q-1 -1 -3 -3.5t-3 -3.5h-142z
M794 655l-4 -7l-19 -19h19v-7v-6h-33l-20 -21h53v-6v-7h-67l-20 -21h88v-6v-7h-102l-20 -20h122v-7v-7h-136l-20 -20h157v-7v-7h-170l-21 -20h190v-7v-6h-204l-20 -21h224v-6v-7h-238l-20 -20h258v-7v-7h-273l-20 -20h294v-7v-7h-307l-21 -20h328v-7v-7h-342l-20 -20h362v-7
v-6h-375v-2l-1 2h-1l-375 375h243q-14 0 -30 6q-12 5 -14 7h91q-6 -4 -14 -7q-16 -6 -30 -6h129h2v2h136q-2 1 -5.5 2t-5.5 2q-12 5 -15 7h92q-6 -4 -15 -7q-7 -3 -11 -4h201z" />
  </font>
</defs>
</svg>
